<?xml version="1.0" encoding="utf-8"?>
<!DOCTYPE svg PUBLIC "-//W3C//DTD SVG 1.0//EN" "http://www.w3.org/TR/2001/REC-SVG-20010904/DTD/svg10.dtd">
<svg version="1.0" xmlns="http://www.w3.org/2000/svg" width="384px" height="512px" viewBox="0 0 384 512" preserveAspectRatio="xMidYMid meet">
 <g fill="#070403">
  <path d="M218 423.5 c0 -2.2 0.5 -3.5 1.3 -3.5 2.2 0 5.7 3.1 5.7 5.1 0 1.5 -0.7 1.9 -3.5 1.9 -3.3 0 -3.5 -0.2 -3.5 -3.5z"/>
  <path d="M156 419.5 c0 -2.8 0.4 -3.5 1.9 -3.5 2 0 3.1 1.8 3.1 5.1 0 1.4 -0.7 1.9 -2.5 1.9 -2.2 0 -2.5 -0.4 -2.5 -3.5z"/>
  <path d="M180.4 129.8 c-1.2 -0.5 -2.5 -2.3 -2.8 -3.9 -0.5 -2.6 -0.9 -2.9 -4.5 -2.9 -5.6 0 -7.1 -1.9 -7.1 -9.1 l0 -5.9 3.9 0 c3.3 0 4.3 0.5 5.7 2.9 1.6 2.8 2.1 2.9 7.3 2.8 5.2 -0.2 5.6 0 6.1 2.3 0.3 1.4 0.7 -1.1 1 -5.5 l0.5 -8 -3.9 -3.8 c-2.2 -2.2 -5 -4.3 -6.3 -4.8 -1.6 -0.6 -2.3 -1.7 -2.4 -3.6 -0.2 -2.4 -0.2 -2.5 -0.6 -0.6 -0.4 1.9 -1.1 2.3 -3.9 2.3 -3.2 0 -3.4 -0.2 -3.4 -3.3 0 -2.1 -0.7 -3.6 -2 -4.5 -2.8 -1.7 -2.9 -8.2 -0.1 -8.2 1 0 2.5 -0.7 3.2 -1.6 1.7 -2 8.3 -1.2 12.1 1.6 1.5 1.1 3.2 2 3.7 2 1.7 0 4.4 4.8 4.3 7.8 0 1.7 1.2 4 3.2 6.2 7.1 7.8 9.7 14 6 14 -0.8 0 -1.2 0.5 -0.9 1 0.4 0.6 -1 3.5 -2.9 6.4 -2 3 -3.6 5.9 -3.6 6.5 0 0.6 -0.4 1.1 -1 1.1 -0.5 0 -1 1.3 -1 2.8 0 4.9 -6.1 8.3 -10.6 6z"/>
  <path d="M153.8 94.4 c-4.2 -2.3 -3.8 -6.7 0.8 -11 4.4 -4.2 7.6 -4.4 10.3 -0.5 2.1 3 2.7 8.5 1.2 11 -1.2 1.9 -9.1 2.3 -12.3 0.5z"/>
 </g>
 <g fill="#170f05">
  <path d="M223 433.3 c-0.8 -0.3 -2.8 -1.8 -4.5 -3.3 -1.6 -1.5 -4.5 -3.3 -6.2 -4 -1.8 -0.7 -3.3 -1.6 -3.3 -2.1 0 -0.5 -0.9 -0.9 -2 -0.9 -1.6 0 -2 -0.7 -2 -3.5 0 -2.4 -0.5 -3.5 -1.5 -3.5 -1 0 -1.5 -1 -1.5 -3.3 0 -1.9 0.3 -3.6 0.6 -4 0.9 -0.9 6.3 2.1 10.4 5.7 1.9 1.7 6.7 5.2 10.6 7.8 6.6 4.4 10.2 8.8 8.9 10.9 -0.7 1 -7 1.1 -9.5 0.2z"/>
  <path d="M154.1 420.9 c-0.6 -1.8 -1.1 -4.7 -1.1 -6.5 0 -3.1 0.3 -3.4 3 -3.4 1.7 0 3 0.3 3 0.8 0.1 0.4 0.7 3.3 1.4 6.5 l1.4 5.7 -3.3 0 c-2.8 0 -3.5 -0.5 -4.4 -3.1z"/>
  <path d="M141.6 347.8 c-0.3 -1.3 -0.6 -3.8 -0.6 -5.5 0 -3.1 0.2 -3.3 3.4 -3.3 3.8 0 4.6 1.2 4.6 7.1 0 3.8 -0.1 3.9 -3.4 3.9 -2.6 0 -3.5 -0.5 -4 -2.2z"/>
  <path d="M191.6 343.2 c-0.3 -0.5 -2.3 -1.2 -4.5 -1.6 -2.9 -0.4 -4.7 -1.5 -6.4 -3.9 -4.3 -5.6 -4.7 -7.3 -5.2 -19.9 -0.4 -10.8 -0.7 -12.5 -2.5 -14 -1.5 -1.2 -1.8 -2.3 -1.4 -4.7 0.6 -3 0.8 -3.1 6.5 -3.1 3.2 0 7.9 -0.7 10.4 -1.5 2.9 -1 7.2 -1.5 12.3 -1.3 l7.7 0.3 0.3 3.8 c0.2 2.6 -0.2 4.5 -1.3 5.7 -1.2 1.3 -1.9 4.9 -2.5 12 -0.5 5.5 -1.2 11.6 -1.6 13.4 -0.3 2 -0.1 3.6 0.5 4 0.6 0.4 1.1 2.7 1.1 5.1 0 4.3 -0.1 4.4 -3.7 5 -2.1 0.4 -5 0.9 -6.5 1.1 -1.4 0.3 -2.9 0.1 -3.2 -0.4z"/>
  <path d="M125 310.5 c0 -3.3 0.2 -3.5 3.5 -3.5 3.3 0 3.5 0.2 3.5 3.5 0 3.3 -0.2 3.5 -3.5 3.5 -3.3 0 -3.5 -0.2 -3.5 -3.5z"/>
  <path d="M180.3 130.4 c-0.7 -0.3 -1.3 -1.2 -1.3 -2.1 0 -2.7 -2.8 -4.3 -7.3 -4.3 -4.1 0 -4.7 -0.3 -6.7 -3.6 -1.5 -2.7 -2 -5 -1.8 -8.3 0.3 -4.5 0.4 -4.6 4 -4.9 4.4 -0.4 10.8 2.1 10.8 4.2 0 1.3 1.4 1.6 7.5 1.6 l7.5 0 0 5.5 c0 4.6 -0.5 6 -2.7 8.5 -2.7 2.9 -7.4 4.5 -10 3.4z m7.7 -3.6 c0 -0.7 -0.6 -3.3 -1.4 -5.8 -1.1 -3.5 -1.8 -4.4 -3.2 -4.2 -3 0.6 -3.6 1.7 -2.9 5.5 0.4 2.1 1.5 3.9 2.8 4.5 3 1.5 4.7 1.4 4.7 0z m-13.5 -7.8 c0.7 -1.1 -3.2 -8 -4.5 -8 -1.4 0 -0.8 5.2 0.9 7 1.9 2.1 2.8 2.4 3.6 1z"/>
  <path d="M195.5 108.7 l-1.9 -3.2 -0.4 2.6 c-0.2 2.1 -0.7 2.6 -2.3 2.2 -1.4 -0.4 -1.9 -1.4 -1.9 -3.9 0 -3.3 -0.2 -3.4 -3.7 -3.4 -3 0 -4.7 -0.8 -7.7 -3.6 -4.6 -4.2 -10.4 -5.6 -12.5 -3 -0.7 0.9 -2 1.6 -2.7 1.6 -0.8 0 -1.7 1.2 -2 2.7 -1.1 4.4 -4.4 7.3 -8.1 7.3 l-3.3 0 0 -5.2 c0.1 -2.9 0.7 -8 1.5 -11.3 1.2 -5 2.2 -6.6 5.7 -9.7 2.4 -2.1 5.3 -3.8 6.5 -3.8 1.2 0 2.5 -0.4 2.8 -1 0.3 -0.5 1.3 -1 2.2 -1 0.9 0 2.5 -0.8 3.6 -1.8 1.9 -1.6 2 -1.6 0.8 0.6 -0.6 1.2 -1.6 2.2 -2.1 2.2 -1.5 0 -1.2 2.6 0.4 3.9 1.6 1.4 4.2 -1.1 3 -3 -0.4 -0.8 -0.3 -0.9 0.5 -0.5 0.6 0.4 0.9 1.6 0.6 2.6 -0.3 1 0 2.2 0.6 2.6 0.8 0.5 0.9 0.3 0.4 -0.6 -0.6 -1 -0.4 -1.2 0.9 -0.7 1 0.4 2 0.7 2.2 0.7 0.2 0 0.4 0.6 0.4 1.4 0 0.8 0.7 1.7 1.6 2 1 0.4 1.3 1.3 0.9 2.5 -0.5 1.5 0.2 2.3 2.9 3.6 1.9 0.9 4.1 2.7 5 3.9 0.8 1.3 4 3.5 7 4.9 3.1 1.5 5.6 3.2 5.6 3.8 0 1 -3.8 7.9 -4.3 7.9 -0.1 0 -1.1 -1.5 -2.2 -3.3z m-32.1 -18.4 c0.8 -2 -3.1 -7.3 -5.4 -7.3 -2.2 0 -5.1 4.2 -4 5.9 2.1 3.5 8.3 4.4 9.4 1.4z"/>
 </g>
 <g fill="#1c0e07">
  <path d="M153.3 443.8 c-1.8 -2.9 -3.8 -7.6 -4.4 -10.5 -0.7 -2.9 -1.6 -5.3 -2.1 -5.3 -0.9 0 -1.1 -8 -0.2 -10.4 0.3 -0.9 1.2 -1.6 1.9 -1.6 0.7 0 1.4 -1.8 1.7 -4.5 1 -8.5 5.8 -10.5 7.7 -3.1 0.6 2.4 1.4 5.2 1.8 6.2 0.6 1.7 0.5 1.7 -1 0.5 -1 -0.8 -2.1 -1.1 -2.4 -0.7 -0.4 0.4 -0.2 1.1 0.5 1.5 0.7 0.4 1.2 1.2 1.1 1.7 -0.4 2.1 0.2 3.5 1.3 3.2 0.7 -0.3 2.5 2.1 4 5.1 3.1 6.1 7.1 13 8.6 14.6 0.5 0.6 1.6 2.2 2.6 3.7 1.7 2.6 1.7 2.6 -1.5 3.7 -1.8 0.6 -6.2 1.1 -9.8 1.1 l-6.6 -0.1 -3.2 -5.1z"/>
  <path d="M221.5 432.4 c-2.2 -1.5 -7.1 -4.2 -11 -6.1 -3.8 -1.8 -8.7 -4.8 -10.8 -6.6 -3.3 -2.7 -4 -4 -4.4 -8.1 -0.6 -5.3 0.3 -6.6 5 -6.6 1.7 0 2.7 0.5 2.7 1.5 0 0.8 0.9 1.9 2.1 2.5 1.6 0.9 1.8 1.4 0.8 2.6 -0.8 1 -0.8 1.4 0 1.4 0.6 0 1.1 -0.4 1.1 -1 0 -0.5 0.7 -1 1.5 -1 1.7 0 2 1.6 0.5 2.5 -0.5 0.3 -1 2 -1 3.7 0 3 0 3.1 2 1.3 1.7 -1.6 2 -1.6 2.6 -0.2 0.3 0.9 0.3 2 0 2.5 -0.3 0.6 1.2 1.7 3.3 2.5 2.1 0.9 4.8 2.8 6 4.3 1.2 1.5 2.4 2.4 2.8 2.1 0.3 -0.4 1.2 -0.2 2 0.4 1 0.9 1.7 0.8 2.9 -0.2 1.3 -1 1.7 -1 2.5 0.2 3.2 4.9 -4.3 6.6 -10.6 2.3z"/>
  <path d="M141.7 350.3 c-0.4 -0.3 -0.7 -3.3 -0.7 -6.5 l0 -5.8 3.4 0 c4 0 4.6 1.1 4.6 8.1 0 4.9 0 4.9 -3.3 4.9 -1.9 0 -3.7 -0.3 -4 -0.7z"/>
  <path d="M163 311.5 c0 -3.1 0.3 -3.5 2.5 -3.5 2.8 0 3 0.5 1.3 4.3 -1.8 3.8 -3.8 3.4 -3.8 -0.8z"/>
  <path d="M152 308.1 c0 -1.7 -0.6 -2.1 -3 -2.1 -2.7 0 -3 -0.3 -3 -3.4 0 -2.9 0.4 -3.6 3.1 -4.5 1.8 -0.6 5.6 -1.1 8.5 -1.1 5.3 0 5.4 0 5.4 -3 0 -1.8 0.6 -3.3 1.5 -3.6 0.9 -0.4 1.5 -1.9 1.5 -3.8 0 -6.1 0.9 -7.6 4.6 -7.6 2.4 0 3.7 0.6 4.5 2.1 1 2 1 3.7 -0.3 12.4 -0.2 1.6 0.3 2.1 3 2.3 2.5 0.3 3.2 0.8 3.2 2.4 0 1.7 -0.4 2 -2.9 1.5 -2.5 -0.5 -3 -0.3 -3.3 1.6 -0.4 2.3 -0.6 2.4 -5 1.3 -2.1 -0.5 -2.8 -0.3 -2.8 0.9 0 1 -1 1.5 -3.4 1.5 -2.8 0 -3.5 0.4 -3.8 2.3 -0.2 1.8 -1 2.3 -4 2.5 -3.3 0.3 -3.8 0 -3.8 -1.7z"/>
  <path d="M127 290.5 c0 -3.3 0.2 -3.5 3.5 -3.5 3.3 0 3.5 0.2 3.5 3.5 0 3.3 -0.2 3.5 -3.5 3.5 -3.3 0 -3.5 -0.2 -3.5 -3.5z"/>
  <path d="M162.8 150.9 c-1.2 -0.6 -1.8 -2.2 -1.8 -4.4 0 -3.4 0.1 -3.5 4 -3.5 3.3 0 4 -0.3 4 -2 0 -1.6 0.7 -2 3 -2 2.7 0 4.1 1.3 2.3 2.2 -0.5 0.2 -2.1 1.8 -3.7 3.5 -2.9 3.2 -2.9 3.3 -1.1 5.3 1.8 2 1.8 2 -1.6 2 -1.9 0 -4.2 -0.5 -5.1 -1.1z"/>
  <path d="M174.6 136.4 c-1.1 -2.9 -0.6 -7.5 0.9 -8 3.2 -1.3 1.2 -2.4 -4.2 -2.4 -6.1 -0.1 -7.8 -0.9 -10.6 -5 -2.2 -3.2 -2.2 -10.3 0 -12.5 2.5 -2.5 13.2 -1.7 17.2 1.3 3.7 2.7 11.7 3.2 10.7 0.6 -0.3 -0.9 -0.9 -2.7 -1.2 -4 -0.3 -1.3 -1.2 -2.4 -1.9 -2.4 -2.3 0 -7.8 -3.3 -8.2 -4.9 -0.3 -1 -2.3 -2.2 -5 -2.9 -4.3 -1.2 -4.8 -1.1 -6.9 0.9 -1.3 1.2 -2.8 3.7 -3.5 5.6 -1.2 3.8 -5.2 6.3 -9.9 6.3 -3 0 -3 0 -3 -5.7 0 -3.2 0.6 -8 1.4 -10.8 1 -4.1 1.4 -4.6 2 -2.8 0.7 2.3 -0.2 7.3 -1.3 7.3 -0.4 0 -0.8 1.8 -0.9 4.1 -0.3 3.4 0 4 1.5 3.7 1 -0.2 2.3 -1.3 2.9 -2.6 0.6 -1.2 1.4 -1.9 1.7 -1.5 0.4 0.3 0.7 -0.1 0.7 -1.1 0 -1.1 -0.5 -1.5 -1.2 -1 -0.7 0.4 -0.3 -0.3 0.9 -1.5 1.2 -1.1 2.4 -2.1 2.7 -2.1 0.3 0 2.1 -1.1 4 -2.4 3.5 -2.3 3.7 -2.4 8.8 -0.8 2.9 0.8 5.7 2 6.3 2.6 0.5 0.6 2.2 2.2 3.8 3.5 2.3 2.1 2.7 2.2 2.7 0.7 0 -0.9 -1.5 -3.1 -3.2 -4.8 -2.8 -2.6 -3 -2.9 -1 -2.3 1.2 0.3 4.3 2.6 6.7 5.1 4.5 4.4 4.5 4.4 4.8 12.1 l0.2 7.8 -7.2 -0.1 c-6.6 -0.1 -8.8 0.6 -6.4 2 0.5 0.3 1.2 2.2 1.5 4.2 0.6 2.9 1.4 3.8 4.4 5.1 3.7 1.5 3.7 1.6 1.2 2.5 -1.4 0.5 -2.9 1.4 -3.5 2.1 -0.5 0.7 -2.4 2.3 -4.1 3.5 -2.8 1.9 -3.3 2 -3.8 0.6z m1 -19.6 c-0.9 -3.2 -1.8 -4.4 -4.4 -5.5 -1.8 -0.7 -3.7 -1.1 -4.1 -0.9 -1.2 0.8 -0.8 3.7 1.2 7.4 1.4 2.6 2.3 3.2 5.1 3.2 l3.3 0 -1.1 -4.2z"/>
  <path d="M189.2 126.1 c-0.7 -0.4 -1.5 -2.4 -1.9 -4.4 -0.6 -4.1 0.8 -4.8 4.2 -2.3 1.8 1.3 1.8 1.6 0.5 4.5 -1 2.1 -1.9 2.8 -2.8 2.2z"/>
  <path d="M164 84.5 c-1.9 -2 -2 -2.5 -0.7 -2.5 0.9 0 2 0.7 2.5 1.6 0.5 0.9 1.2 1.5 1.5 1.5 1 -0.1 1 1.3 0 1.6 -0.5 0.2 -2 -0.8 -3.3 -2.2z"/>
  <path d="M159.5 79.1 c0.7 -1.2 6.5 -2 6.5 -0.9 0 0.4 -0.3 0.9 -0.7 0.9 -4.3 0.7 -6.3 0.6 -5.8 0z"/>
 </g>
 <g fill="#1f160a">
  <path d="M194.2 345.4 c-0.4 -0.7 -2 -1.9 -3.5 -2.7 l-2.9 -1.5 4.4 -0.7 c10.9 -1.6 10.7 -1.5 8.4 -5.9 -0.9 -1.8 -1.1 -3.9 -0.6 -6.9 0.5 -2.4 0.4 -4.7 -0.1 -5.3 -1.1 -1.3 -0.2 -4.4 1.3 -4.4 0.6 0 0.5 -0.7 -0.3 -1.6 -1 -1.2 -1 -2 -0.1 -3.5 0.7 -1.1 1 -2.4 0.7 -2.9 -0.8 -1.2 1.4 -7.9 3.3 -10.2 0.8 -0.9 1.1 -2.2 0.7 -2.7 -0.9 -1.6 -9.4 -1.3 -14.5 0.5 -2.5 0.9 -7.1 1.7 -10.2 1.8 -5 0.1 -5.8 0.3 -6.3 2.3 -0.3 1.5 -1 2 -2.1 1.6 -0.9 -0.3 -2 0 -2.4 0.7 -0.4 0.7 -2.8 1.5 -5.4 1.7 -3.6 0.5 -4.6 0.9 -4.6 2.4 0 1.5 -0.7 1.9 -3.5 1.9 -3.3 0 -3.5 -0.2 -3.5 -3.5 0 -1.9 0.5 -3.5 1 -3.5 0.6 0 1 -1.1 1 -2.5 0 -1.8 0.5 -2.5 2 -2.5 1.1 0 2 -0.4 2 -1 0 -0.5 1.3 -1 2.9 -1 2.5 0 3.1 -0.5 3.6 -3.1 0.6 -2.8 0.9 -3 4.8 -2.7 3.5 0.2 4.3 0.7 4.5 2.5 0.9 6.5 14.3 3.2 23.8 -5.9 1.8 -1.7 4 -2.8 5 -2.6 1.1 0.2 3 2.7 4.6 5.9 2.4 4.7 3 7.8 4.3 22.3 0.8 9.3 2.2 19.9 3.1 23.5 2 8.9 1.6 9.1 -15.4 10.4 -3.6 0.3 -5.5 0 -6 -0.9z m-21 -46.3 c-0.8 -0.4 -1.9 -1.9 -2.6 -3.2 -1.3 -2.7 -4.1 -3.3 -4.1 -0.9 0 0.8 0.5 1.5 1.1 1.5 0.6 0 1.8 0.8 2.8 1.8 1 0.9 2.3 1.7 2.9 1.7 0.8 0 0.7 -0.3 -0.1 -0.9z"/>
  <path d="M142 342.5 c0 -3.3 0.2 -3.5 3.5 -3.5 3.3 0 3.5 0.2 3.5 3.5 0 4.3 -2.1 4.7 -3.7 0.8 l-1.1 -2.8 -0.1 2.8 c-0.2 4 -2.1 3.3 -2.1 -0.8z"/>
  <path d="M124 312 c0 -3.6 0.4 -5 1.4 -5 0.8 0 1.6 -0.5 1.8 -1.1 0.2 -0.6 2.5 -1.3 5.1 -1.6 4.5 -0.5 4.7 -0.5 4.7 2.1 0 1.4 0.5 2.6 1.1 2.6 0.6 0 0.9 1.6 0.7 3.8 l-0.3 3.7 -7.2 0.3 -7.3 0.3 0 -5.1z"/>
  <path d="M162.2 311.3 c0.3 -3.5 0.6 -3.8 3.5 -4.1 2.7 -0.3 3.1 -0.1 2.6 1.7 -0.3 1.2 -0.9 2.1 -1.4 2.1 -0.5 0 -0.9 0.9 -0.9 2 0 1.4 -0.7 2 -2.1 2 -1.7 0 -2 -0.5 -1.7 -3.7z"/>
  <path d="M128 288.5 c0 -3.3 0.2 -3.5 3.5 -3.5 3.3 0 3.5 0.2 3.5 3.5 0 3.3 -0.2 3.5 -3.5 3.5 -3.3 0 -3.5 -0.2 -3.5 -3.5z"/>
  <path d="M169 259.5 c0 -4.5 0 -4.5 3.5 -4.5 3.5 0 3.5 0 3.5 4.5 0 4.5 0 4.5 -3.5 4.5 -3.5 0 -3.5 0 -3.5 -4.5z"/>
  <path d="M163 150.5 c0 -0.8 -0.7 -1.5 -1.5 -1.5 -1 0 -1.5 -1.1 -1.5 -3.5 l0 -3.5 5.3 0 c6.3 0 7.3 0.7 5.1 3.2 -1.1 1.2 -2.5 1.6 -4 1.2 -3.3 -0.8 -3 0.2 0.6 2.1 4 2.1 3.8 3.5 -0.5 3.5 -2.4 0 -3.5 -0.5 -3.5 -1.5z"/>
  <path d="M176.1 113.6 c-1.9 -1.4 -4.6 -2.8 -6.2 -3.1 -3.8 -0.8 -3.9 -3.5 -0.1 -3.5 4.2 0 7.2 1.1 7.2 2.6 0 0.8 0.9 1.4 2 1.4 1.5 0 2 0.7 2 2.5 0 3.1 -0.8 3.1 -4.9 0.1z"/>
  <path d="M149.2 102.8 c0.1 -5.3 0.3 -6 0.5 -2.8 0.3 2.5 0.8 4.9 1.2 5.3 1.5 1.6 6.8 -2.1 8 -5.5 1.2 -3.5 6.4 -8.8 8.5 -8.8 2.8 0 10.2 3.2 12.6 5.4 1.4 1.3 3.5 2.9 4.8 3.6 l2.3 1.1 -1.7 -2.8 c-1 -1.5 -2.7 -3.6 -3.8 -4.5 l-2.1 -1.8 2.1 0 c1.2 0 3.8 1.9 6.2 4.6 4.3 4.7 5.1 6.4 3 6.4 -0.8 0 -0.9 0.3 -0.3 0.8 1.8 1.3 1.4 4.2 -0.6 4.2 -2.5 0 -8.7 -3.6 -12.9 -7.6 -3.8 -3.6 -7.7 -5.4 -11.6 -5.4 -2 0 -2.4 0.5 -2.4 2.8 0 4.2 -1.1 7.2 -2.6 7.2 -0.8 0 -1.4 0.7 -1.4 1.5 0 1.9 -3.1 3.5 -6.9 3.5 l-3.1 0 0.2 -7.2z"/>
  <path d="M150 93.6 c0 -0.8 0.5 -1.8 1 -2.1 0.6 -0.3 1 0.1 1 0.9 0 0.8 -0.4 1.8 -1 2.1 -0.5 0.3 -1 -0.1 -1 -0.9z"/>
  <path d="M162.6 79.2 c-0.2 -0.4 0.6 -1.2 1.9 -1.8 1.8 -0.9 2.2 -0.9 1.8 0.2 -0.6 1.5 -3.1 2.6 -3.7 1.6z"/>
 </g>
 <g fill="#341108">
  <path d="M160.3 451.3 c-2.7 -0.5 -7.1 -6.5 -10.9 -14.9 -2.3 -5 -2.8 -7.6 -3.2 -17.1 l-0.4 -11.3 2.5 -0.9 c1.4 -0.5 2.8 -1.5 3.2 -2 1.1 -1.9 5.2 -1.3 5.8 0.9 0.3 1.1 0 1.8 -0.6 1.7 -1.5 -0.3 -3.7 4.3 -3.7 8.1 0 1.9 -0.5 3.2 -1.3 3.2 -0.7 0 -1.8 0.9 -2.4 2 -1 1.6 -1 2.2 0.5 3.6 0.9 1 1.7 2.4 1.7 3.3 0 1.1 0.8 1.5 2.3 1.4 2.7 -0.3 2.9 1.7 0.2 2.4 -1.2 0.3 -2 1.4 -2 2.5 0 3.1 3.2 7.8 5.3 7.8 1.4 0 1.7 0.5 1.2 2 -0.6 1.9 -0.2 2 4.7 1.6 2.9 -0.2 6.7 -0.7 8.5 -1.1 2.9 -0.7 3.3 -0.5 3.9 2 0.5 2.1 0.2 3.1 -1.1 4.2 -1.8 1.2 -9.2 1.6 -14.2 0.6z"/>
  <path d="M217 429.5 l-2.5 -1.4 2.8 -0.1 c1.7 0 2.7 0.5 2.7 1.5 0 1.8 0.1 1.8 -3 0z"/>
  <path d="M194.6 409.8 c-0.3 -1.8 -0.7 -5.2 -0.8 -7.4 l-0.3 -4.2 6.2 0 c3.5 0 6.3 0.3 6.3 0.6 0 0.4 -0.7 1.6 -1.5 2.6 -0.8 1.1 -1.5 3 -1.5 4.2 0 1.5 -0.8 2.4 -2.5 2.8 -1.6 0.4 -2.5 1.3 -2.5 2.6 0 3.4 -2.9 2.3 -3.4 -1.2z"/>
  <path d="M147 301.5 c0 -3.3 0.2 -3.5 3.5 -3.5 4.3 0 4.7 2.1 0.8 3.7 l-2.8 1.1 2.8 0.1 c4 0.2 3.3 2.1 -0.8 2.1 -3.3 0 -3.5 -0.2 -3.5 -3.5z"/>
  <path d="M162 295.5 c0 -3.2 0.2 -3.5 3 -3.5 2.3 0 3 -0.4 3 -2 0 -1.1 -0.4 -2 -1 -2 -0.5 0 -1 -1.8 -1 -4 0 -3.3 0.4 -4.1 2.4 -4.6 1.3 -0.3 3.5 -0.4 4.7 -0.2 2.2 0.3 2.4 0.8 2.4 6.3 l0 6 -3.8 0.6 c-5 0.8 -6.8 2.6 -4.4 4.3 2.5 1.9 2.1 2.6 -1.8 2.6 -3.3 0 -3.5 -0.2 -3.5 -3.5z m9.9 -8.4 c1.1 -0.7 1.1 -1.3 0 -3.2 -1.2 -2.3 -1.2 -2.3 -2 -0.4 -1.6 4.1 -0.9 5.4 2 3.6z"/>
  <path d="M151.3 276.3 c-0.8 -0.2 -1.3 -2.2 -1.3 -4.4 0 -3.7 0.2 -3.9 3.1 -3.9 4.9 0 6.9 1.6 6.9 5.5 0 3.4 -0.1 3.5 -3.7 3.4 -2.1 0 -4.4 -0.3 -5 -0.6z"/>
  <path d="M104 268.7 c0 -2.2 3.1 -5.7 5.1 -5.7 1.5 0 1.9 0.7 1.9 3.5 0 3.3 -0.2 3.5 -3.5 3.5 -2.2 0 -3.5 -0.5 -3.5 -1.3z"/>
  <path d="M169.2 140.5 c0.2 -2.5 0 -4.5 -0.4 -4.5 -0.5 0 -0.8 -1.6 -0.8 -3.5 0 -2.4 -0.5 -3.5 -1.5 -3.5 -0.8 0 -1.5 -0.6 -1.5 -1.4 0 -0.8 -1.3 -2.7 -3 -4.3 -1.6 -1.5 -3 -3.3 -3 -3.9 0 -0.6 -0.7 -1.7 -1.5 -2.4 -0.8 -0.7 -1.5 -2.8 -1.5 -4.6 0 -3.2 0.2 -3.4 3.3 -3.4 2.9 0 7.8 1.9 5 2 -2.1 0 -2.5 4 -0.7 6.8 2.3 3.7 4.1 4.6 9.4 4.8 2.5 0.1 5 0.3 5.7 0.3 0.7 0.1 1.5 1.8 1.9 3.9 0.4 2 1 3.9 1.5 4.2 0.4 0.3 0.4 1.2 -0.2 2 -0.8 1.3 -1.1 1.3 -2.3 -0.2 -1.6 -2.2 -2.9 -1.2 -1.5 1.3 0.7 1.3 0.6 1.9 -0.1 1.9 -0.6 0 -1.4 0.8 -1.7 1.8 -0.7 1.9 -5.7 7.2 -6.8 7.2 -0.4 0 -0.5 -2 -0.3 -4.5z"/>
  <path d="M178.7 115.3 c-1.8 -1.7 -0.5 -3.3 2.8 -3.3 4 0 4.9 2.4 1.3 3.4 -2.9 0.7 -3.3 0.7 -4.1 -0.1z"/>
  <path d="M188.7 115.3 c-1.4 -1.3 -0.6 -3.3 1.3 -3.3 1.3 0 2 0.7 2 2 0 1.9 -2 2.7 -3.3 1.3z"/>
 </g>
 <g fill="#2b2310">
  <path d="M153.3 361.3 c-0.8 -0.3 -1.3 -2.3 -1.3 -4.9 0 -4.1 0.2 -4.4 2.6 -4.4 1.4 0 2.3 0.4 2 0.9 -0.3 0.5 0.1 1.1 0.9 1.5 0.9 0.3 1.5 1.9 1.5 4.1 0 3 -0.3 3.5 -2.2 3.4 -1.3 0 -2.9 -0.3 -3.5 -0.6z"/>
  <path d="M139.7 348.8 c-1 -3.6 -0.8 -4.8 0.8 -4.8 1 0 1.5 -1 1.5 -3.1 0 -2.9 0.2 -3 3.8 -2.7 l3.7 0.3 0.3 5.8 c0.3 5.6 0.3 5.7 -2.5 5.7 -1.5 0 -3.8 0.3 -4.9 0.6 -1.6 0.4 -2.3 0 -2.7 -1.8z m5.4 -7.1 c-0.8 -0.8 -1.1 -0.2 -1.1 1.9 0 4 1.4 5.4 1.8 1.9 0.2 -1.5 -0.1 -3.2 -0.7 -3.8z"/>
  <path d="M152.4 349.5 c-0.6 -1.5 0 -11.1 1.2 -19.2 0.6 -4 0.8 -4.3 3.6 -4.3 2.1 0 2.9 0.4 2.5 1.3 -0.3 0.7 -1 6.3 -1.7 12.5 -1.1 9.9 -1.5 11.2 -3.2 11.2 -1 0 -2.1 -0.7 -2.4 -1.5z"/>
  <path d="M125.6 317.4 c-1.8 -1.8 -2.1 -6 -0.6 -9.8 0.8 -2.3 1.5 -2.6 5.5 -2.6 2.5 0 4.5 0.3 4.5 0.8 0 0.4 1 1.2 2.3 1.7 3 1.3 3.8 8.2 1 9.1 -1 0.3 -2.6 1 -3.5 1.5 -2.7 1.4 -7.5 1.1 -9.2 -0.7z m3.8 -6.5 c-1 -1.6 -2.3 -0.9 -2.1 1 0.1 1.5 0.4 1.7 1.4 0.9 0.7 -0.5 1 -1.4 0.7 -1.9z m6.1 2.1 c0.3 -0.5 0.1 -1 -0.4 -1 -0.6 0 -1.1 -1.2 -1.1 -2.7 0 -1.7 -0.4 -2.3 -0.9 -1.7 -1.1 1 -0.3 6.4 1 6.4 0.4 0 1.1 -0.4 1.4 -1z"/>
  <path d="M157 305.6 c0 -3.2 0.2 -3.4 3.3 -3.3 2.8 0.2 3.2 0.6 3.5 3.5 0.3 3.1 0.2 3.2 -3.2 3.2 -3.4 0 -3.6 -0.2 -3.6 -3.4z"/>
  <path d="M173.3 298.3 c-0.7 -0.2 -1.3 -1 -1.3 -1.8 0 -0.9 2.4 -1.4 7.9 -1.7 7 -0.4 8.4 -0.8 12.7 -3.9 2.7 -1.9 5.8 -4.9 6.9 -6.7 2.5 -3.9 5.1 -4.1 5.8 -0.6 0.4 2.1 -0.3 3.3 -3.1 5.8 -6.1 5.3 -9.5 7.6 -13.2 8.6 -3.6 1 -13.5 1.2 -15.7 0.3z"/>
  <path d="M128 289.9 c0 -0.5 -1.6 -0.9 -3.5 -0.9 -3.4 0 -3.5 -0.1 -3.5 -3.6 l0 -3.7 5.3 0.7 c2.8 0.3 6.4 0.6 8 0.6 2.4 0 2.7 0.4 2.7 3.5 0 2.8 -0.4 3.5 -2.2 3.9 -3.9 0.7 -6.8 0.5 -6.8 -0.5z"/>
  <path d="M169.4 263.2 c-0.7 -0.4 -1.7 -2.6 -2.3 -4.9 -1.1 -3.8 -1.5 -4.3 -4.1 -4.3 -2 0 -3 -0.5 -3 -1.4 0 -7.1 -3.4 -25.6 -5.6 -30.2 -2.7 -5.8 -3.9 -6.6 -4.7 -3.4 -0.4 1.6 -1.4 2 -4.6 2 l-4.1 0 0 -6.2 c0 -3.5 0.6 -9.1 1.4 -12.5 1.2 -5.9 1.1 -6.3 -0.6 -6.3 -1.3 0 -1.8 -0.8 -1.8 -3 0 -1.6 -0.4 -3 -0.9 -3 -0.4 0 -1.2 -3.3 -1.5 -7.2 -1.1 -11.2 -3.2 -17.2 -7.2 -20.7 -1.9 -1.7 -4.1 -3.1 -4.9 -3.1 -2.6 0 -1.6 -1.6 2.5 -4.4 5 -3.3 8 -3.3 12 0 6.3 5.4 16.2 30.2 25.5 64 3.7 13.1 7.7 27.1 9.1 31.1 1.3 3.9 2.4 8.7 2.4 10.7 0 3.4 -0.2 3.6 -3.2 3.6 -1.8 0 -3.8 -0.4 -4.4 -0.8z"/>
  <path d="M129 215.6 c0 -1.8 0.3 -4.8 0.6 -6.5 0.6 -2.7 1 -3.1 4 -3.1 3.3 0 3.4 0.1 3.4 4.3 0 7.3 -0.8 8.7 -4.6 8.7 -3.2 0 -3.4 -0.2 -3.4 -3.4z"/>
  <path d="M132 199 c0 -3.9 0.1 -4 3.5 -4 3.4 0 3.5 0.1 3.5 4 0 3.9 -0.1 4 -3.5 4 -3.4 0 -3.5 -0.1 -3.5 -4z"/>
 </g>
 <g fill="#472512">
  <path d="M154.1 445.2 c-0.9 -1.6 -0.7 -2.1 0.9 -2.5 2.6 -0.7 3.2 0.4 1.5 2.6 -1.3 1.8 -1.4 1.8 -2.4 -0.1z"/>
  <path d="M146.9 429.7 c-0.4 -1.5 -0.4 -2.6 -0.1 -2.3 0.2 0.3 1.1 -0.2 1.9 -1 0.8 -0.8 1.9 -1.2 2.4 -0.8 1.2 0.7 0.1 2.4 -1.6 2.4 -0.7 0 -1.5 1 -1.7 2.3 -0.3 2 -0.4 1.9 -0.9 -0.6z"/>
  <path d="M153 430.5 c0.7 -0.8 1.9 -1.5 2.7 -1.5 1.3 0 1.3 0.3 0.3 1.5 -0.7 0.8 -1.9 1.5 -2.7 1.5 -1.3 0 -1.3 -0.3 -0.3 -1.5z"/>
  <path d="M218 430 c-0.8 -0.5 -1.1 -1.2 -0.7 -1.6 0.4 -0.4 1.3 -0.2 1.9 0.4 1.5 1.5 0.7 2.4 -1.2 1.2z"/>
  <path d="M145.4 410.9 c-1 -4.4 -0.9 -4.9 0.8 -4.9 1.7 0 1.8 -1.3 1.8 -20 0 -16.9 0.2 -20.2 1.5 -20.6 0.9 -0.4 1.5 -1.9 1.5 -4 0 -2.4 -0.5 -3.4 -1.5 -3.4 -0.8 0 -1.5 0.9 -1.5 2 0 1.6 -0.7 2 -3.4 2 l-3.3 0 -0.8 -7.2 c-0.4 -4 -0.7 -8.9 -0.7 -10.8 -0.1 -1.9 -0.5 -3.8 -1 -4.1 -0.5 -0.3 -1 -4.1 -1.2 -8.5 -0.5 -10.1 -0.4 -9.6 -1.5 -8.9 -0.5 0.3 -1.2 0.1 -1.5 -0.4 -0.3 -0.5 -3.1 -1.2 -6.2 -1.6 l-5.6 -0.7 0.4 -5.4 0.5 -5.4 -3.4 0 c-2.6 0 -3.3 -0.4 -3.3 -2 0 -2.6 -3 -6 -5.2 -6 -0.9 0 -2.5 -1.3 -3.5 -3 -0.9 -1.6 -2.1 -3 -2.5 -3 -0.4 0 -0.8 -0.7 -0.8 -1.5 0 -0.9 -0.9 -1.5 -2.2 -1.5 -2 0 -2.1 -0.2 -1.5 -9.7 0.5 -7.4 1.3 -10.9 3.2 -14.9 1.4 -2.8 2.5 -6.1 2.5 -7.2 0 -3.7 3.4 -2.7 4.9 1.3 1.1 3.3 1.5 3.5 5.6 3.5 2.9 0 4.5 -0.5 4.9 -1.5 0.8 -2.1 7.9 -1.9 20.9 0.9 l10.7 2.2 0 -2.8 c0 -2.3 0.4 -2.8 2.5 -2.8 2.3 0 2.4 -0.4 2.7 -6.2 0.2 -4.9 0.7 -6.3 2 -6.6 0.9 -0.2 1.8 0.5 2.1 1.5 0.4 1.7 0.5 1.7 0.6 0.1 0 -1 0.8 -1.8 1.6 -1.8 1.3 0 1.5 1.1 1.3 6.3 -0.3 5.9 -0.4 6.2 -3 6.5 -2.5 0.3 -2.8 0.8 -2.8 3.8 0 2.2 -0.5 3.4 -1.4 3.4 -2.1 0 6.1 7.7 9.4 8.9 2.3 0.8 3 0.7 3 -0.3 0 -0.7 1.4 -2.5 3 -4.1 1.7 -1.6 3 -3.7 3 -4.7 0 -1.4 0.8 -1.8 4 -1.8 3.5 0 4.2 0.4 5.1 2.8 0.6 1.5 0.9 6.2 0.7 10.5 -0.2 6.1 -0.7 8.2 -2.1 9.1 -0.9 0.7 -1.7 2.3 -1.7 3.4 0 1.5 -0.8 2.2 -2.7 2.5 -2.6 0.4 -2.6 0.4 0.5 0.6 4.1 0.1 4.3 2.7 0.3 3.6 -4.8 1 -9.9 -0.4 -10.3 -2.9 -0.4 -2.5 -3.9 -3.3 -5.7 -1.2 -1 1.2 -0.8 1.6 0.9 2.1 2.2 0.7 5.8 6.5 4 6.5 -0.5 0 -1 0.6 -1 1.4 0 1.8 -2.5 6.7 -3.6 6.9 -0.5 0.1 -0.7 1.3 -0.5 2.6 0.1 1.3 -0.1 2.6 -0.6 3 -1.4 1 -5.3 8.1 -5.3 9.7 0 0.8 -0.6 1.7 -1.4 2 -0.9 0.4 -1.2 1.7 -0.9 4.6 0.4 3.2 0.2 3.9 -0.8 3.2 -1.2 -0.6 -1.2 -0.5 0 0.9 1.2 1.5 0.9 2.1 -1.1 1.8 -0.5 0 -0.8 1.1 -0.8 2.5 0 1.9 0.4 2.5 1.4 2.1 1 -0.4 1.3 -0.1 0.9 0.8 -0.3 0.8 -0.9 1.2 -1.4 0.9 -0.5 -0.3 -0.9 -0.1 -0.9 0.5 0 0.5 0.5 1.3 1.1 1.7 0.6 0.3 0.9 1.9 0.7 3.5 -0.3 1.6 0 3.1 0.6 3.3 0.6 0.2 0.3 0.5 -0.6 0.5 -2.4 0.1 -2.3 2.8 0.1 3.6 2.3 0.7 2.9 3.6 2 8.5 -0.4 1.9 -1.1 11.6 -1.4 21.5 -0.8 19.1 -0.8 19.2 -6.2 21.5 -1.3 0.5 -2.3 1.8 -2.3 2.9 0 1 -0.6 2.1 -1.3 2.4 -0.9 0.3 -1.7 -1 -2.3 -4.4z m1.6 -65.5 c0 -0.8 0.5 -1.4 1 -1.4 1.6 0 1.2 -7 -0.5 -7.6 -0.9 -0.4 -1.6 -2 -1.6 -4.3 l-0.2 -3.6 -0.6 4 c-0.4 2.8 -0.2 4.1 0.7 4.3 0.6 0.2 1.2 1.4 1.2 2.7 0 1.8 -0.4 2.3 -1.5 1.9 -1.1 -0.5 -1.5 0.1 -1.5 2.3 0 1.6 0.3 3.3 0.6 3.6 1 0.9 2.4 -0.2 2.4 -1.9z m-15.5 -31.4 c-0.3 -0.5 0 -1.2 0.6 -1.6 0.8 -0.4 0.9 -0.3 0.5 0.4 -0.5 0.8 0 1.2 1.3 1.2 2.6 0 3.4 -1.5 1.6 -3 -0.8 -0.7 -1.5 -1.8 -1.5 -2.5 0 -1.4 -3.6 -0.9 -5.7 0.8 -1.8 1.4 -1.6 4.4 0.4 5.6 1.9 1 3.7 0.5 2.8 -0.9z m5.3 -16.7 c1.5 -1 1 -1.2 -2.8 -1.2 l-4.5 0 2.3 1.8 c1.2 1.1 2.3 2.7 2.3 3.8 0.1 1.2 0.3 0.9 0.6 -0.7 0.3 -1.3 1.2 -3 2.1 -3.7z m17.9 4.1 c0.2 -0.7 -0.6 -1 -2.2 -0.6 -3.5 0.6 -4.4 2.4 -0.9 2 1.5 -0.2 2.9 -0.8 3.1 -1.4z m9.6 -0.9 c-0.8 -2.2 -2.2 -1.8 -1.6 0.5 0.3 1.1 0.9 1.7 1.4 1.5 0.4 -0.3 0.6 -1.2 0.2 -2z m-5.1 -7.1 c3.8 -1.9 4.4 -3.4 1.4 -3.4 -1.6 0 -2.6 -0.6 -2.6 -1.5 0 -0.8 -0.4 -1.5 -1 -1.5 -0.5 0 -1 0.9 -1 2 0 1.1 -0.5 2 -1.1 2 -1.2 0 -3.8 2.9 -3.9 4.3 0 0.9 4.6 -0.1 8.2 -1.9z m13.6 -8.7 c-0.2 -1.2 -1 -2.2 -1.8 -2.2 -2 0 -2.5 4 -0.8 5.9 1.1 1.2 1.4 1.2 2.1 0 0.5 -0.8 0.7 -2.5 0.5 -3.7z m-32.5 3.6 c-1.2 -0.2 -2.4 -1.2 -2.6 -2.1 -0.3 -1.2 -0.5 -1 -0.6 0.6 -0.1 1.8 0.4 2.2 2.7 2.1 2.2 -0.1 2.3 -0.2 0.5 -0.6z m-28.3 -12.8 c0 -0.8 -0.4 -1.5 -1 -1.5 -0.5 0 -1 0.7 -1 1.5 0 0.8 0.5 1.5 1 1.5 0.6 0 1 -0.7 1 -1.5z m43.6 -3 c-1.1 -0.8 -2.2 -1.2 -2.5 -0.9 -0.6 0.6 1.9 2.4 3.4 2.4 0.6 -0.1 0.1 -0.7 -0.9 -1.5z"/>
  <path d="M194.2 400.3 c-0.5 -1 -1.3 -3.9 -1.6 -6.5 -0.7 -4.4 -0.6 -4.8 1.3 -4.8 1.7 0 2.1 0.6 2.1 2.9 0 1.7 0.5 3.3 1 3.6 0.6 0.4 1 -2.6 1 -8.4 0 -8 1.7 -18.2 3.6 -21.2 0.3 -0.6 0.3 -4.4 -0.1 -8.5 -0.7 -7.2 -0.8 -7.5 -3.5 -8.1 -2.5 -0.4 -3.9 -2.5 -4 -5.4 0 -0.4 3.6 -0.8 7.9 -1.1 5.1 -0.3 8.9 -1.1 10.5 -2.2 1.5 -0.9 3.1 -1.4 3.6 -1.1 1.8 1.1 1 6.9 -1.5 11.7 -2.7 5 -4.4 13.6 -7 34.8 -1.2 9.7 -2.1 13.9 -3.3 14.8 -2.4 1.9 -9 1.5 -10 -0.5z"/>
  <path d="M168 260.5 c0 -3.9 2.4 -5 3.3 -1.5 0.3 1.1 1.1 2 1.7 2 0.7 0 1 -0.8 0.7 -2 -0.3 -1.1 -0.1 -2 0.4 -2 0.5 0 0.9 1.6 0.9 3.5 0 3.3 -0.2 3.5 -3.5 3.5 -3.3 0 -3.5 -0.2 -3.5 -3.5z"/>
  <path d="M119 244.3 c-3.7 -0.7 -5 -2.2 -5 -5.9 l0 -3.3 8.7 0 c4.8 0 9.3 0.5 10 1.1 0.7 0.6 1.3 2.8 1.3 4.9 l0 3.9 -6.2 -0.1 c-3.5 -0.1 -7.4 -0.4 -8.8 -0.6z"/>
  <path d="M128 219.2 c0 -4.7 1.2 -7.2 3.6 -7.2 0.7 0 1 0.9 0.8 2.3 l-0.5 2.2 1 -2.2 c1.8 -4 4.1 -2.9 4.1 2 -0.1 5.3 -1.8 7.7 -5.9 7.7 -3 0 -3.1 -0.1 -3.1 -4.8z"/>
  <path d="M161 161.3 c-8 -4.6 -9.2 -6.2 -8.5 -10.8 0.3 -2.2 0.8 -6.4 1.1 -9.2 0.6 -5.2 0.6 -5.3 3.9 -5.3 3.1 0 3.3 -0.2 3.7 -4.2 0.4 -4 -0.3 -6.4 -4.1 -13.7 -1.2 -2.4 -3.1 -2.4 -3.1 -0.2 0 1.4 -0.6 2.1 -1.9 2.1 -2.4 0 -3.1 -1.9 -3.1 -8.5 0 -4.7 0.2 -5.3 1.8 -4.8 2.5 0.6 7.8 -4 8.7 -7.4 0.3 -1.6 1.6 -3.8 2.7 -5 3.8 -4.1 12.7 -2.4 17.8 3.2 1.4 1.5 4.2 3.6 6.2 4.6 4.6 2.3 6 4.8 5.6 9.6 l-0.3 3.7 -6 0.1 c-4.7 0 -6.7 -0.5 -9.3 -2.4 -4.5 -3.1 -10.3 -3.9 -12.5 -1.6 -1 1 -2.4 1.4 -3.4 1.1 -1.6 -0.6 -1.6 -0.5 0 1.2 0.9 1 1.7 2.3 1.7 2.9 0 0.5 1.2 2 2.6 3.4 1.4 1.3 3 3.3 3.4 4.4 0.7 1.7 0.9 1.7 0.9 0.3 0.1 -1.9 3.1 -2.5 3.1 -0.7 0 0.6 1.5 0 3.4 -1.5 3.9 -2.9 4.6 -2.3 4.6 4.4 0 2.1 0.5 4.2 1 4.5 0.6 0.3 1 1.2 1 1.8 0 0.7 -0.7 0.4 -1.4 -0.5 -1.4 -1.9 -9.6 -2.6 -9.6 -0.9 0 1.2 3.7 2.4 4.9 1.7 0.5 -0.3 1.4 0.1 2.1 0.9 1.1 1.3 0.8 1.5 -1.6 1.6 -1.6 0 -2.3 0.3 -1.6 0.6 2 0.8 1.4 3.3 -0.8 3.3 -1.3 0 -2 0.7 -2 1.8 0 2.9 -1.9 4.1 -5.9 3.5 -3.5 -0.6 -3.6 -0.6 -1.9 1.4 1 1 3.3 2.5 5.2 3.3 2.5 0.9 3.7 2.1 4.1 4.1 0.3 1.5 1.5 3.5 2.6 4.5 3.9 3.5 1.9 5.4 -5.9 5.4 -3.3 0 -6.1 -0.8 -9.2 -2.7z m13.4 -57.5 c0.5 -1.7 -0.2 -3 -2.5 -5.1 -2.8 -2.6 -3.2 -2.7 -4.8 -1.3 -1 0.9 -2.2 3.2 -2.8 5.1 l-1.1 3.5 5.3 0 c4.6 0 5.3 -0.3 5.9 -2.2z"/>
 </g>
 <g fill="#7f6f53">
  <path d="M151 357.5 c0 -1.8 0.5 -2.5 2 -2.5 2.1 0 2.4 0.8 1.4 3.4 -1 2.5 -3.4 1.9 -3.4 -0.9z"/>
  <path d="M143.1 348.3 c0.1 -2.4 0.3 -3 0.6 -1.5 0.6 3.3 2.7 2.2 3.1 -1.6 0.3 -2.6 0.8 -3.2 2.8 -3.2 2.1 0 2.4 0.5 2.4 3.5 0 2.4 -0.5 3.5 -1.5 3.5 -0.8 0 -1.4 0.6 -1.2 1.3 0.1 0.7 -1.1 1.3 -3 1.5 -3.2 0.3 -3.3 0.2 -3.2 -3.5z"/>
  <path d="M128 316.2 c0 -0.4 0.8 -0.8 1.8 -0.8 0.9 -0.1 2.5 -0.4 3.5 -0.9 1.2 -0.5 1.7 -0.3 1.7 0.9 0 1.2 -1 1.6 -3.5 1.6 -1.9 0 -3.5 -0.4 -3.5 -0.8z"/>
  <path d="M177.7 298.3 c-1.8 -1.7 -0.5 -3.3 2.8 -3.3 4 0 4.9 2.4 1.3 3.4 -2.9 0.7 -3.3 0.7 -4.1 -0.1z"/>
  <path d="M188 295 c0 -1.1 0.7 -2 1.5 -2 0.8 0 1.5 -0.4 1.5 -1 0 -0.5 0.4 -1 1 -1 1.5 0 7.9 -7.3 8.6 -9.8 0.8 -2.8 3.8 -2.6 4.2 0.3 0.4 3 -3.2 8 -8.5 11.9 -5.5 4 -8.3 4.6 -8.3 1.6z"/>
  <path d="M123 286.4 c0 -3.1 0.3 -3.6 2 -3.1 1.9 0.5 2.4 -0.3 2.1 -3 -0.3 -2 6.5 -1.7 7.3 0.3 1.1 3 0.7 7.4 -0.8 7.4 -0.8 0 -1.6 -0.5 -1.8 -1.1 -0.2 -0.6 -1.4 -0.2 -3 1 -4 3.2 -5.8 2.7 -5.8 -1.5z"/>
  <path d="M171 262.5 c0 -0.8 0.7 -1.5 1.5 -1.5 1.9 0 1.9 0.1 -0.9 -8.3 -1.4 -4 -5.4 -18 -9.1 -31.1 -6.2 -22.9 -13.6 -43.7 -19.6 -55.7 -3.1 -6.3 -8.2 -11.2 -10.8 -10.5 -0.9 0.3 -2.2 0.2 -2.9 -0.2 -0.9 -0.6 -0.3 -1.4 2.2 -2.7 3.3 -1.8 3.4 -1.8 6.6 0.1 1.8 1 3.8 2.8 4.4 3.9 0.6 1.1 1.4 2.2 1.7 2.5 1.9 1.6 11 23.2 15.6 37 1.3 4.1 5.1 17.5 8.4 29.7 3.2 12.2 6.8 24.5 7.9 27.3 1.1 2.8 2 6.4 2 8 0 2.8 -0.3 3 -3.5 3 -2.4 0 -3.5 -0.5 -3.5 -1.5z"/>
  <path d="M195.6 259.8 c-1.1 -4.1 -0.7 -8.8 0.7 -8.8 1.3 0 3.7 6 3.7 9.4 0 2.5 -3.7 2 -4.4 -0.6z"/>
  <path d="M167 259 c0 -1.1 -0.7 -2 -1.5 -2 -1.2 0 -1.5 -1.3 -1.4 -6.2 0.1 -10.8 1.2 -11.1 4.2 -1.2 3.2 10.6 3.3 11.4 0.7 11.4 -1.3 0 -2 -0.7 -2 -2z"/>
  <path d="M158.3 256.3 c-0.9 -0.3 -1.3 -3.1 -1.3 -8.7 0 -4.6 -0.3 -10.4 -0.6 -12.9 l-0.7 -4.6 -2.4 3 c-2 2.4 -3.3 2.9 -6.7 2.9 -3.4 0 -4.8 -0.6 -7.4 -3.3 -1.8 -1.8 -3.2 -4.1 -3.2 -5.2 0 -1 -1 -2.9 -2.1 -4.1 -1.5 -1.6 -1.9 -2.8 -1.4 -4.1 0.5 -1 0.9 -3.8 1.1 -6.3 l0.2 -4.5 -1 3.5 c-0.5 1.9 -1.1 4.2 -1.4 5 -1 3 -2.2 -1.2 -2.9 -10.6 -0.7 -8.9 -0.7 -9.1 1.5 -9.7 2.1 -0.5 2.2 -1 1.6 -5.9 -0.3 -2.9 -0.9 -7.8 -1.2 -10.9 l-0.7 -5.6 3.1 -0.6 3 -0.6 -1.7 -5.5 c-0.9 -3.1 -2.1 -5.6 -2.7 -5.6 -2.4 0 -6.4 -2.6 -6.4 -4.2 0 -2.9 4.5 -2.2 8.4 1.3 4 3.5 6.1 9.5 7.2 20.7 0.5 5.4 1 7.2 2.2 7.2 1.1 0 1.3 0.7 0.9 3 -0.6 2.5 -0.3 3 1.3 3 2.5 0 2.5 2 0.5 11.5 -0.8 3.9 -1.5 8.5 -1.5 10.3 0 4.9 2.3 3.5 3.7 -2.2 0.7 -2.7 1.4 -5.1 1.7 -5.3 1.1 -1.1 2.6 1 2.6 3.8 0 1.8 0.5 2.9 1.4 2.9 2.8 0 6.5 10.2 8 22.1 2 15.4 1.9 20.9 -0.2 20.8 -0.9 0 -2.3 -0.3 -2.9 -0.6z"/>
  <path d="M180.7 168.3 c-0.4 -0.3 -0.7 -1.9 -0.7 -3.5 0 -2.5 0.2 -2.7 1.9 -1.9 1 0.6 2.6 2.2 3.5 3.6 1.6 2.5 1.6 2.5 -1.2 2.5 -1.6 0 -3.2 -0.3 -3.5 -0.7z"/>
  <path d="M173.6 160.2 c1.5 -1.5 2.3 -1.6 3.7 -0.8 2.7 1.7 2 2.6 -2 2.6 -3.6 0 -3.6 0 -1.7 -1.8z"/>
 </g>
 <g fill="#88714a">
  <path d="M145 363.1 l-4.5 -0.6 -0.2 -7.5 c0 -4.1 -0.8 -11.5 -1.7 -16.5 -0.9 -4.9 -1.4 -10.2 -1.1 -11.6 0.8 -3.5 -2.3 -5.5 -9.8 -6.4 l-5.7 -0.7 0 -5.4 c0 -4.7 -0.2 -5.4 -2 -5.4 -1.2 0 -2 -0.7 -2 -1.6 0 -1.6 -3.6 -5.4 -5.1 -5.4 -0.4 0 -3.3 -2.4 -6.3 -5.3 l-5.5 -5.2 0.1 -6.3 c0.1 -3.4 0.5 -6.2 1 -6.2 0.8 0 0.9 0.4 1.3 4.5 0.1 1.1 0.2 2.8 0.3 3.8 0.1 0.9 0.7 1.7 1.3 1.7 0.7 0 0.9 -0.9 0.5 -2.2 -1.7 -5.9 -1.3 -8.1 1 -5.8 0.7 0.7 0.9 0.1 0.6 -2 -0.4 -2.5 -0.7 -2.8 -1.8 -1.9 -1.8 1.4 -2.1 1.1 -2.8 -2.3 -0.5 -3.1 2.4 -6.8 5.4 -6.8 2.3 0 2.4 -0.4 0.8 -3.3 -0.7 -1.2 -1.2 -5.2 -1.3 -8.9 -0.1 -8 0.7 -8.4 7.9 -4 4.8 2.8 6.2 6.2 2.6 6.2 -1.1 0 -2 0.5 -2 1 0 0.6 0.4 1 0.8 1 0.5 0 1.4 1.1 2 2.5 1 2.2 1.4 2.4 2.6 1.3 0.8 -0.7 1.2 -1.7 0.9 -2.1 -0.8 -1.4 12.5 -0.1 20.5 1.8 5.8 1.5 7.2 2.2 7.2 3.7 0 1.8 -0.5 1.9 -4.2 1.2 -2.4 -0.4 -5.4 -0.8 -6.8 -1 -1.4 -0.1 -4.1 -0.7 -6 -1.3 -1.9 -0.6 -4.6 -1.1 -6 -1 l-2.5 0 2.3 1 c2.4 0.9 2.2 2.9 -0.4 2.9 -0.8 0 -1.4 0.6 -1.4 1.3 0 0.7 1.6 1.2 4.5 1.3 14.5 0.4 17.8 1 13.9 2.5 -1.6 0.7 -1.5 0.8 0.7 0.8 1.4 0.1 2.9 0.4 3.2 0.8 0.4 0.4 3.2 0.5 6.2 0.4 3.4 -0.1 5.5 0.2 5.5 0.8 0 0.6 0.8 1.1 1.7 1.1 1.4 0 1.2 -0.4 -0.7 -2.5 l-2.3 -2.5 2.1 0 c1.2 0 2.2 0.4 2.2 0.8 0 0.5 2.3 1.4 5 2.1 4.2 1.1 5 1.6 5 3.7 0 1.7 -0.4 2.2 -1.5 1.8 -0.8 -0.4 -1.5 -0.2 -1.6 0.2 -0.1 0.5 -0.3 2.9 -0.5 5.3 -0.4 4.7 -2.3 7.5 -6.6 9.7 -4.6 2.4 -6.8 1.8 -6.8 -1.6 0 -2 -0.5 -3 -1.5 -3 -0.9 0 -1.5 0.9 -1.5 2.5 0 1.4 0.5 2.5 1 2.5 2.2 0 0.8 2.6 -2.3 4 -2.2 1 -3.1 2.1 -2.9 3.4 0.2 1.1 -0.1 1.5 -0.7 1.1 -0.6 -0.3 -1.9 -0.1 -2.8 0.4 -1 0.6 -1.4 1.1 -0.9 1.1 0.6 0 0.1 0.7 -1 1.5 -1.3 1 -1.5 1.4 -0.5 1.5 0.8 0 1.1 0.3 0.8 0.7 -0.4 0.3 -0.2 1.2 0.4 1.9 0.7 0.9 0.7 1.9 -0.1 3.6 -1.1 2.2 -1 2.2 0.4 0.4 1.1 -1.3 2.7 -1.9 5 -1.8 2.3 0.1 3.4 -0.3 3.2 -1.1 -0.1 -0.7 -0.1 -0.9 0.1 -0.4 1 1.6 3.2 0.5 6.2 -2.8 3.4 -4 4.7 -4.4 4.7 -1.6 0 1.1 -0.4 1.7 -0.8 1.5 -1 -0.7 -7.8 5.9 -7.8 7.5 0 2 2.4 1.1 5.7 -2.1 4 -3.8 4.5 -2.3 0.6 1.7 -1.6 1.6 -2.3 2.5 -1.6 2.2 0.6 -0.4 1.4 -0.3 1.8 0.3 0.3 0.5 -0.1 1 -1 1 -0.9 0 -1.3 0.5 -1 1 0.4 0.6 1.1 0.8 1.6 0.5 0.5 -0.4 0.9 -0.2 0.9 0.3 0 1.1 -5.8 2.4 -7.1 1.6 -0.5 -0.3 -1.8 -0.2 -2.9 0.1 -2 0.6 -2 0.7 0.2 2.6 l2.3 2 -2.2 -0.6 c-3.4 -0.9 -3 2.9 0.5 6 1.5 1.3 2.1 2.5 1.5 2.5 -1.5 0 -1.8 3.7 -0.3 4.2 1.3 0.4 2.5 12.8 1.3 12.8 -0.6 0 -1.5 -1.1 -2.1 -2.5 -1.5 -3.3 -2.9 -3.2 -2.8 0.2 0.1 1.9 0.7 2.9 2.1 3.2 2.7 0.5 3.2 1.5 2.7 5.6 -0.5 3.8 -0.3 3.8 -9.2 2.6z m0.2 -7.1 c0.3 -1.6 0.1 -3 -0.4 -3 -0.4 0 -0.8 1.4 -0.8 3 0 1.7 0.2 3 0.4 3 0.2 0 0.6 -1.3 0.8 -3z m1.8 -10.5 c0 -2.5 -0.6 -3.7 -2.1 -4.6 -2.1 -1.1 -2.2 -1 -1.5 2.1 0.3 1.8 0.6 3.9 0.6 4.6 0 0.8 0.7 1.4 1.5 1.4 1 0 1.5 -1.1 1.5 -3.5z m-4.7 -17.7 c0.6 -3.8 -0.7 -5.3 -1.7 -2 -0.5 1.8 -0.9 9 -0.6 10.7 0.2 1.3 1.6 -3.9 2.3 -8.7z m10.7 -10 c0 -1.9 -0.2 -2 -1 -0.8 -1.3 1.9 -1.3 3 0 3 0.6 0 1 -1 1 -2.2z m-22.5 -2.6 c1.1 -0.2 2.8 -0.4 3.7 -0.6 3 -0.4 3.3 -1.6 1.3 -5.2 -1.4 -2.7 -2.3 -3.3 -3.9 -2.8 -3.4 1 -4.4 2.6 -5.1 7.9 -0.5 4.3 -0.4 4.7 0.7 3 0.7 -1.1 2.2 -2.1 3.3 -2.3z m-6.8 -14.8 c-3.1 -3 -3.7 -3.2 -3.7 -1.6 0 1.1 0.7 2.5 1.5 3.2 1.3 1.1 1.4 1 0.9 -0.5 -0.5 -1.3 -0.4 -1.6 0.4 -1.1 0.7 0.4 1.2 1.3 1.2 2.1 0 0.7 0.6 1.5 1.3 1.8 2.6 0.9 2 -0.5 -1.6 -3.9z m24.3 -7.5 c0 -1 0.5 -2.1 1 -2.4 0.6 -0.3 1 -1.5 1 -2.7 0 -1.9 -0.1 -1.9 -2.2 -0.5 -1.3 0.8 -2.2 2 -2 2.6 0.1 0.7 -0.5 1.4 -1.3 1.7 -0.8 0.4 -1.5 1.4 -1.5 2.3 0 1.4 0.2 1.4 1.1 0.1 0.9 -1.2 1 -1 0.6 0.8 -0.3 1.3 -0.3 3 0 3.8 0.7 1.8 3.3 -2.8 3.3 -5.7z m-34.7 3.4 c-0.4 -1.1 -0.3 -1.4 0.5 -0.9 2 1.2 1.3 -1 -0.8 -2.9 -2 -1.8 -2.1 -1.8 -1.4 0 0.5 1.3 0.4 1.6 -0.5 1 -0.8 -0.4 -0.6 0.4 0.4 1.9 2 3 2.7 3.4 1.8 0.9z m18.5 -6.8 c0.1 -3.6 -0.3 -3.7 -3.6 -1.2 -0.9 0.7 -0.9 1.3 -0.1 2.3 0.6 0.8 1.5 1.1 2 0.8 0.5 -0.3 0.9 0 0.9 0.5 0 0.6 0.2 1.1 0.3 1.1 0.2 0 0.4 -1.6 0.5 -3.5z m20.8 -8 c0 -1.4 -0.4 -2.5 -0.8 -2.5 -0.4 0 -0.8 0.5 -0.8 1.1 0 0.5 -0.6 0.7 -1.2 0.3 -0.7 -0.4 -0.4 0.2 0.6 1.4 1.1 1.2 2 2.2 2.1 2.2 0 0 0.1 -1.1 0.1 -2.5z m-13.1 -0.5 c-0.9 -1.4 0.8 -1.3 2.3 0.2 0.7 0.7 1.2 0.8 1.2 0.3 -0.1 -1.8 -2.5 -4.1 -5.7 -5.4 -1.8 -0.7 -3.3 -1.6 -3.3 -2 0 -0.9 -16.2 -1.1 -17.8 -0.2 -0.7 0.4 0.6 0.7 2.8 0.8 2.2 0 4.6 0.5 5.3 1.1 0.6 0.5 2.7 0.9 4.5 0.7 1.7 -0.1 3.2 0.2 3.2 0.7 0 0.5 1 0.6 2.1 0.3 1.4 -0.5 1.9 -0.3 1.5 0.3 -0.3 0.6 -0.1 1.4 0.5 1.8 0.8 0.5 0.9 0.3 0.4 -0.6 -0.5 -0.8 -0.3 -1.1 0.6 -0.8 0.8 0.3 1.3 1.2 1.1 2.2 -0.2 0.9 0.2 1.6 0.8 1.6 0.6 0 0.8 -0.4 0.5 -1z"/>
  <path d="M194.7 346.9 c-0.4 -1.5 -0.2 -1.9 1 -1.5 0.8 0.3 1.9 0.6 2.4 0.6 0.5 0 0.9 0.7 0.9 1.5 0 2.3 -3.7 1.8 -4.3 -0.6z"/>
  <path d="M153.2 308.4 c-0.7 -0.8 -1 -1.9 -0.7 -2.5 0.5 -0.6 1.2 -0.4 1.9 0.7 0.7 0.9 1.8 1.4 2.4 1 1.9 -1.1 1.4 -3.4 -0.8 -3.9 -1.7 -0.4 -1.7 -0.4 0.2 -0.3 2.9 0.1 3.7 3.5 1.2 5.3 -2.2 1.6 -2.6 1.6 -4.2 -0.3z"/>
  <path d="M167.7 300.8 c-1 -1.7 -1.2 -2.8 -0.5 -2.6 1.7 0.6 4.1 4.5 3.1 5.1 -0.5 0.3 -1.6 -0.8 -2.6 -2.5z"/>
  <path d="M175.8 298.2 c-2.1 -0.2 -2.8 -0.9 -2.8 -2.5 0 -2.2 3.1 -5.7 5 -5.7 0.5 0 0.7 -0.6 0.4 -1.4 -0.3 -0.9 0.4 -1.6 2.1 -2 2.9 -0.7 4.5 -4 4.5 -9.1 0 -4.1 -1.6 -8.5 -3 -8.5 -0.6 0 -0.8 0.5 -0.4 1.1 0.3 0.6 -0.7 2.4 -2.2 4.1 l-2.9 3 -0.5 -3.3 c-0.7 -4.6 -3.9 -6.1 -11.3 -5.3 -7.4 0.8 -11 -0.6 -12.3 -4.8 -0.7 -2.6 -2 -3.6 -6.9 -5.7 -3.3 -1.4 -6.2 -2.8 -6.5 -3.2 -0.9 -1.2 -4.5 -2.6 -8.1 -3.3 -2.1 -0.4 -4.2 -1.3 -4.9 -2.1 -0.7 -0.8 -1.9 -1.5 -2.7 -1.5 -0.8 0 -3.4 -1.4 -5.9 -3 -3.8 -2.7 -4.4 -3.6 -4.4 -6.5 l0 -3.5 6 0 c5.7 0 6 -0.1 5 -1.9 -1.3 -2.5 -1.3 -7.8 -0.1 -8.6 2 -1.2 2.3 -9.5 0.7 -17.6 -1.2 -5.8 -1.4 -10.4 -1 -16 0.7 -7.9 0.7 -7.9 3.5 -7.9 2.8 0 2.9 -0.2 2.9 -5 l0 -5 3.4 0 c3 0 3.4 0.4 4 3.1 0.3 1.7 0.5 6.6 0.5 10.8 l-0.1 7.6 -1.5 -8.5 c-0.7 -4.6 -1.6 -8.6 -1.8 -8.9 -1.2 -1.2 -1.2 1.1 0.1 8.9 0.9 5.8 1 9.5 0.4 11.5 -0.5 1.7 -1.1 4.4 -1.4 6 -0.2 1.7 -0.5 3 -0.6 3 -0.2 0 -0.4 1 -0.5 2.2 -0.1 1.1 -0.5 4.5 -0.9 7.5 l-0.7 5.3 2.1 -3 c1.2 -1.9 2 -2.4 2 -1.4 0 0.9 0.9 2.4 2 3.4 1.1 1 2 2.8 2 4 0 2.8 6.4 9 8.4 8.2 1.2 -0.5 1.6 0 1.6 1.6 0 2.9 -1.8 4.7 -4.7 4.7 -5.3 0 -1.3 5 7.5 9.4 4.4 2.3 5.3 2.4 5.8 1.1 0.8 -1.9 2.4 -2 2.4 -0.1 0 0.8 0.5 1.6 1.1 1.8 0.7 0.2 1.2 1.8 1.3 3.5 0.1 4.3 1.6 3 1.7 -1.5 0 -2 0.3 -5.5 0.7 -7.7 0.8 -4 0.8 -4 3.7 5.8 2.3 7.5 3.3 9.7 4.7 9.7 1.7 0 1.7 -0.3 -0.2 -4.9 -1 -2.7 -3.5 -10.8 -5.4 -18 -3.5 -12.9 -3.6 -13.2 -2.6 -23.3 0.6 -5.7 1.6 -11.6 2.2 -13.1 1 -2.5 1.5 -2.8 5.2 -2.5 4.1 0.3 4.1 0.3 4 4.3 0 2.2 -1.2 8.7 -2.6 14.5 -1.9 8.1 -2.3 11.3 -1.6 14 0.5 1.9 1.2 6.1 1.5 9.2 0.3 3.2 1.1 6.2 1.7 6.7 0.6 0.5 3.4 1.1 6.1 1.3 l5 0.3 1.3 5.5 c1.6 6.5 1.7 6.6 3.7 5 1.1 -0.9 1.5 -3.2 1.5 -8.6 0 -5.6 0.3 -7.4 1.4 -7.4 1.3 0 2.2 2.6 4.7 13.8 1 4.7 1.4 6.4 4.3 17.6 1.9 7.3 0.8 10.5 -5.8 16.3 -6.1 5.4 -13.5 7.6 -21.8 6.5z m-44.8 -57.3 c0 -0.4 -0.7 -1.2 -1.6 -1.9 -1.3 -1.1 -1.9 -1 -3.6 0.8 l-2.1 2.1 3.6 -0.2 c2 -0.1 3.7 -0.5 3.7 -0.8z m-10.2 -1.1 c-0.3 -0.7 -1.3 -1.5 -2.4 -1.7 -1.6 -0.3 -1.7 -0.1 -0.5 1.3 1.6 1.9 3.4 2.1 2.9 0.4z"/>
  <path d="M190.5 235.1 c-0.3 -2.2 -1 -8.1 -1.5 -13.3 -0.5 -5.1 -1.5 -12.4 -2.1 -16.2 -1.1 -6 -1.1 -7 0.3 -8 0.8 -0.6 1.7 -2.6 2 -4.4 0.4 -2.8 0.2 -3.2 -1.9 -3.2 -1.5 0 -2.7 -0.9 -3.5 -2.5 -0.9 -1.9 -1.9 -2.5 -4.4 -2.5 -3 0 -3.4 -0.3 -3.9 -3.7 -1.2 -6.9 -1.5 -7.3 -4.6 -7.3 -2.4 0 -3 -0.5 -3.5 -2.9 -0.4 -1.9 -1.6 -3.3 -4 -4.4 -2.2 -1.1 -3.4 -2.4 -3.4 -3.7 0 -1.1 -0.4 -2 -0.9 -2 -0.4 0 -2.9 -1.8 -5.5 -4.1 -3.7 -3.3 -4.6 -4.7 -4.6 -7.3 0 -2 0.8 -4 2 -5.1 1.2 -1.1 2 -3.1 2 -5.2 0 -2.9 0.3 -3.3 2.8 -3.3 1.5 0 5.7 0.8 9.3 1.8 6.4 1.7 6.6 1.9 5.2 3.7 -1.6 2.3 -4 2.2 -9.5 -0.5 -3 -1.4 -3.8 -1.5 -3.8 -0.5 0 0.8 0.5 1.7 1 2 1.7 1 1.1 4.4 -1.1 6.6 l-2.1 2.1 2.1 2.1 c1.1 1.2 4.5 3.6 7.5 5.2 5 2.7 5.8 2.9 8.8 1.7 2.6 -1 3.6 -0.9 5.4 0.3 6.9 4.5 10.4 10.9 12.8 23 0.9 4.4 2.3 10.3 3.1 13 1.7 5.3 7.5 30.2 7.5 32 0 0.6 -1.6 1.9 -3.5 2.8 -2.9 1.4 -3.5 2.2 -3.5 4.7 0 2.3 -0.5 3 -1.9 3 -1.5 0 -2.1 -1 -2.6 -3.9z"/>
  <path d="M156 111.5 c0 -3.2 0.2 -3.5 3 -3.5 1.7 0 3 -0.4 3 -1 0 -0.6 2.8 -1 6.5 -1 5.9 0 6.5 0.2 6.5 2.1 0 1.9 -0.4 2 -3.9 1.4 -2.8 -0.5 -5 -0.2 -7.5 1 -1.9 0.9 -4 1.4 -4.5 1 -1.5 -0.9 -1.4 0.8 0.1 2.3 0.9 0.9 0.7 1.2 -1 1.2 -1.8 0 -2.2 -0.6 -2.2 -3.5z"/>
  <path d="M166.2 97.3 c-4.3 -0.4 -4.4 -0.5 -2.6 -2.4 2.5 -2.7 7.6 -2.5 11.1 0.6 l2.8 2.4 -3.5 -0.1 c-1.9 -0.1 -5.5 -0.3 -7.8 -0.5z"/>
 </g>
 <g fill="#aa6a3b">
  <path d="M145.6 408.4 c-1.4 -1.3 -2 -3.2 -1.8 -5.4 0 -0.3 0.3 -9.6 0.6 -20.6 0.2 -11 0.8 -21.3 1.1 -22.7 0.7 -2.8 2.5 -3.7 2.5 -1.3 0 0.7 1.4 1.6 3 2 2.6 0.5 3 1 3 4 0 2.2 -0.6 3.6 -1.6 4 -1.4 0.5 -1.5 3.1 -1.2 20.6 0.2 15.9 0 20.1 -1 20.5 -2.1 0.8 -2.9 0.6 -4.6 -1.1z"/>
  <path d="M195.4 399.6 c-1.7 -1.2 -2.4 -3.4 -3.4 -11.1 -1.6 -12 -0.8 -23.1 2.1 -28.7 1.7 -3.2 2 -5.3 1.6 -9 l-0.6 -4.8 3.2 0 c5.6 0 6 0.7 6.1 12.6 0.1 8 -0.4 12.5 -1.7 16.9 -1.4 4.5 -1.8 8.4 -1.5 15.5 0.3 8.9 0.2 9.5 -1.7 9.8 -1.1 0.1 -3 -0.4 -4.1 -1.2z"/>
  <path d="M142.3 323.4 c-0.7 -0.3 -1 -1.1 -0.7 -1.9 0.4 -1 0 -1.2 -1.5 -0.8 -1.7 0.4 -2 0.2 -1.5 -1.1 0.4 -0.9 0.1 -1.6 -0.6 -1.6 -0.9 0 -1.1 -1.2 -0.7 -4.5 0.5 -3.6 0.4 -4.5 -0.8 -4.5 -0.8 0 -1.5 -0.8 -1.4 -1.7 0 -1 0.3 -1.3 0.5 -0.7 0.3 0.7 1.4 1 2.5 0.7 1.7 -0.5 1.9 -0.2 1.3 2.1 -0.5 2.2 -0.3 2.6 1.4 2.6 2.5 0 3.3 1.8 1.9 4.5 -1 1.9 -0.9 1.9 1 0.3 1.1 -1 2.8 -1.8 3.8 -1.8 1.8 0 1.8 0 0 1.4 -1.1 0.8 -1.6 1.9 -1.2 3 0.7 1.8 2.7 2.2 2.7 0.4 0 -0.7 0.6 -0.6 1.8 0.4 0.9 0.8 2.6 1.8 3.7 2.3 1.3 0.5 1.6 0.9 0.7 1.2 -0.7 0.3 -2.4 -0.3 -3.9 -1.2 -2.3 -1.6 -2.5 -1.6 -2 -0.1 0.5 1.3 0 1.6 -2.6 1.5 -1.8 0 -3.7 -0.3 -4.4 -0.5z"/>
  <path d="M127.6 320.1 c-0.4 -0.5 -0.3 -1.7 0 -2.6 0.5 -1.3 0.9 -1.4 1.5 -0.3 0.7 1.1 1.1 1 1.8 -0.2 0.6 -0.8 1.3 -1.1 1.7 -0.7 0.4 0.3 0.2 1.3 -0.5 2.1 -0.9 1.1 -0.9 1.5 0.1 1.9 0.7 0.3 0.1 0.6 -1.4 0.6 -1.5 0.1 -2.9 -0.3 -3.2 -0.8z"/>
  <path d="M153.5 319.9 c-0.4 -0.6 -0.4 -1.3 -0.1 -1.6 0.3 -0.4 0.6 -0.1 0.6 0.5 0 1.9 1.7 1.4 4 -1 2.2 -2.4 2.7 -1.3 0.6 1.5 -1.5 1.9 -4.1 2.3 -5.1 0.6z"/>
  <path d="M114 318.5 c-5.4 -1.3 -9.9 -2.6 -13.2 -4 -1.9 -0.8 -2.5 -5.5 -0.8 -5.5 0.6 0 1 -0.7 1 -1.5 0 -0.9 0.9 -1.5 2.5 -1.5 1.5 0 2.5 -0.6 2.5 -1.4 0 -0.8 1.2 -1.6 2.7 -1.8 2.5 -0.3 2.6 -0.4 1 -2 -0.9 -0.9 -1.7 -2.1 -1.7 -2.7 0 -0.6 -1.3 -1.1 -3 -1.1 -2.8 0 -3 -0.3 -3 -3.5 0 -5 2.8 -4.6 8.6 1.3 2.6 2.6 4.3 4 3.9 3.2 -0.5 -0.8 0.5 -0.3 2.2 1.3 1.6 1.5 3.3 2.4 3.8 2 0.4 -0.5 0.5 0.4 0.3 2 -0.3 1.5 -0.2 2.7 0.3 2.7 0.4 0 1.2 -1.2 1.7 -2.7 0.7 -1.8 1.1 -2.2 1.1 -1 0.1 1 1.1 2.2 2.4 2.7 1.3 0.5 1.6 0.9 0.7 0.9 -1.3 0.1 -1.6 1.5 -1.5 7.1 l0 7 -3 -0.1 c-1.6 -0.1 -5.5 -0.7 -8.5 -1.4z"/>
  <path d="M140.8 307.3 c0 -1 -0.1 -2.4 -0.1 -3 0.1 -1.8 -1.4 -1.6 -2.5 0.3 -0.8 1.3 -1 1.4 -1.5 0.2 -0.3 -0.9 0.5 -1.8 2.4 -2.5 2.2 -0.8 2.9 -0.8 2.9 0 0 0.7 0.6 0.5 1.3 -0.4 0.7 -0.9 2.2 -1.9 3.5 -2.3 3.5 -1.1 2.8 1.7 -0.8 3.1 -2 0.7 -3 1.8 -3 3.2 0 2.5 -1.9 3.8 -2.2 1.4z"/>
  <path d="M124.3 300.2 c-2.4 -2.1 -4.3 -4.2 -4.3 -4.7 0 -0.5 0.9 0.1 2.1 1.4 2.3 2.4 4 2.1 1.9 -0.4 -1 -1.3 -0.9 -1.5 0.9 -1.5 1.2 0 2.1 0.6 2.1 1.5 0 2.2 7.7 4 10.7 2.4 1.2 -0.7 2.6 -0.9 3 -0.6 1 1.1 -2.9 3.6 -5.5 3.7 -1.3 0 -2 0.4 -1.7 1 0.4 0.6 -0.6 1 -2.2 1 -1.8 0 -4.3 -1.3 -7 -3.8z m5.2 0.8 c-1.6 -1.1 -3.4 -2 -4 -2 -1.7 0.1 3.6 4 5.4 4 1 0 0.6 -0.7 -1.4 -2z"/>
  <path d="M114 291.9 c0 -0.5 0.5 -0.7 1.1 -0.3 0.7 0.4 1 0.1 0.7 -0.7 -0.3 -0.8 -1.1 -1.3 -1.8 -1.1 -0.7 0.1 -2.1 -0.7 -3.1 -1.9 -2.3 -2.6 -2.5 -3.6 -0.4 -1.9 1.8 1.5 2 -0.1 0.3 -1.8 -0.9 -0.9 -0.5 -1.2 1.8 -1.2 3.1 0 5.4 1.5 5.4 3.7 0 0.8 -0.7 1 -1.7 0.6 -1.6 -0.6 -1.6 -0.4 0.2 1.6 1.6 1.9 1.7 2.4 0.5 3.1 -2 1.3 -3 1.2 -3 -0.1z"/>
  <path d="M157.2 285 c0.2 -1 -0.6 -2.6 -1.7 -3.5 -1.1 -0.9 -1.5 -1.4 -1 -1.1 0.6 0.2 1.7 0.1 2.4 -0.4 1 -0.6 0.8 -0.9 -0.8 -1.5 -2.7 -0.8 -2.7 -2.5 -0.1 -2.5 1.1 0 2 0.5 2 1 0 0.6 0.8 1 1.8 1 3.9 0.1 7.2 5 3.3 5 -2.5 0 -4.7 2.6 -2.9 3.3 0.7 0.3 0.3 0.6 -1 0.6 -1.8 0.1 -2.3 -0.4 -2 -1.9z"/>
  <path d="M165.5 283 c2 -2.3 2.9 -2.1 1.9 0.4 -0.3 0.9 -1.3 1.6 -2.2 1.6 -1.3 0 -1.2 -0.3 0.3 -2z"/>
  <path d="M171.5 282 c-0.3 -0.5 -2.3 -1.5 -4.5 -2.1 -2.2 -0.7 -5 -2.3 -6.2 -3.7 -1.9 -2.1 -2 -2.4 -0.5 -1.9 1.1 0.4 1.6 0.3 1.2 -0.3 -0.4 -0.6 -1.2 -0.9 -1.8 -0.8 -0.7 0.1 -2.6 -0.5 -4.3 -1.5 -4 -2.1 -16.5 -5.5 -18.1 -5 -0.8 0.3 -1.3 -0.4 -1.3 -1.8 0 -2 0.3 -2.1 5.2 -1.6 2.9 0.4 5.4 1.1 5.6 1.7 0.5 1.5 5.2 1.2 5.2 -0.4 0 -0.8 -1.6 -1.7 -3.7 -2.1 -5.4 -1 -18.1 -6.3 -22.4 -9.4 -13.4 -9.6 -14.9 -11 -14.9 -14.6 0 -3.4 0.1 -3.5 3.9 -3.5 4.8 0 7.7 2.7 3.4 3.2 -2.8 0.3 -2.8 0.3 1.9 3.6 2.6 1.7 5.3 3.2 6.1 3.2 0.8 0 2 0.6 2.6 1.4 0.7 0.8 2.7 1.8 4.4 2.1 4.2 0.8 8.7 2.6 8.7 3.4 0 0.3 2.7 1.7 6 3 5.8 2.3 9.7 6.1 8.5 8.1 -0.7 1.2 4.6 3.4 5.4 2.3 0.9 -1.2 10.2 -0.9 13.1 0.4 1.4 0.6 3.4 2 4.4 3.2 1.9 2.1 1.9 2.1 -1.2 6 -1.8 2.2 -3.2 4.9 -3.2 6 0 2.1 -2.4 2.9 -3.5 1.1z"/>
  <path d="M111 273 c0 -1.1 0.5 -2 1 -2 0.6 0 1 0.5 1 1.1 0 0.6 0.7 0.3 1.6 -0.5 2 -2.1 5.4 -2.1 5.4 0 0 1.2 -0.6 1.5 -2.4 1 -1.5 -0.4 -2.8 0 -3.6 0.9 -1.7 2.1 -3 1.9 -3 -0.5z"/>
  <path d="M181.4 266.6 c-1 -0.8 -1.6 -1.7 -1.3 -2 0.3 -0.3 1.4 0.3 2.4 1.4 2.1 2.3 1.7 2.6 -1.1 0.6z"/>
  <path d="M112.2 256.3 c0.2 -0.5 -1 -2.1 -2.7 -3.6 l-3 -2.6 3.8 -0.1 c3.4 0 3.7 0.2 3.7 2.9 0 1.7 -0.5 3.3 -1 3.6 -0.6 0.4 -0.9 0.2 -0.8 -0.2z"/>
  <path d="M149 148.1 c0 -2.5 0.5 -4.1 1.5 -4.5 1 -0.4 1.5 -2 1.5 -5.2 l0 -4.6 3.9 0.4 c3.8 0.3 3.9 0.2 4.3 -3.2 0.3 -1.9 -0.1 -4.6 -0.9 -6 -0.7 -1.4 -1.3 -3.5 -1.3 -4.7 0 -1.4 -0.6 -2.3 -1.5 -2.3 -0.8 0 -1.5 0.9 -1.5 2 0 1.4 -0.7 2 -2.4 2 -1.8 0 -2.5 -0.7 -3 -3.1 -0.8 -4.3 -0.8 -10.9 0.2 -10.9 1.3 0.1 4.2 2.7 4.2 3.9 0 0.7 0.5 0.9 1 0.6 0.6 -0.3 1 -1.7 1 -3 0 -1.3 0.9 -3.3 2 -4.3 1.1 -1 2.6 -3.6 3.3 -5.8 2.4 -6.9 8.4 -8.2 14.3 -3.1 2.7 2.3 2.7 2.5 2.2 10.7 -0.2 2.4 -2 3 -7 2.4 -3.5 -0.5 -5.4 -0.2 -7.2 1 -1.4 0.9 -3.2 1.3 -4 1 -2 -0.8 -2.1 1 -0.2 2.5 0.8 0.7 1.7 2.4 2.1 3.9 0.8 3.4 4.9 8.8 7.7 10.3 1.8 1 2 0.9 1.5 -0.5 -0.4 -0.9 -0.2 -1.6 0.4 -1.6 0.6 0 2.3 -0.9 3.9 -2 3.2 -2.3 4 -1.8 4 2.6 0 3.6 -1.6 4.7 -4.3 3 -1.2 -0.8 -2.2 -0.7 -3.7 0.2 -1.2 0.7 -2.5 1 -3.1 0.6 -1.2 -0.7 -3.9 1.4 -3.9 3.2 0 1 0.5 1.1 2.3 0.3 1.5 -0.7 3.1 -0.7 4.7 0 2.2 0.8 2.2 1 0.5 1.1 -2 0.1 -2 0.1 -0.1 1.5 1.9 1.4 1.9 1.5 0.1 3.5 -2.2 2.4 -4.8 2.5 -10.5 0.5 -5.4 -1.9 -5.1 -1.9 -4.5 0.8 0.5 1.7 -0.1 3.3 -1.9 5.4 -1.9 2.3 -2.2 3.3 -1.4 4.1 0.9 0.9 0.5 1.2 -1.5 1.2 -2.5 0 -2.7 -0.3 -2.7 -3.9z m19 -45.2 c0.7 -1.1 0.9 -2.8 0.5 -3.7 -0.5 -1.4 -0.9 -1.3 -2 0.8 -0.8 1.4 -1.4 3.1 -1.5 3.8 0 1.9 1.8 1.4 3 -0.9z"/>
 </g>
 <g fill="#947c52">
  <path d="M143 361 c0 -1.1 -0.6 -2 -1.3 -2 -0.9 0 -1.2 -1.1 -0.9 -3.6 0.3 -2.6 0.7 -3.3 1.6 -2.4 0.6 0.6 1.1 2.3 1.1 3.7 0 1.4 0.6 2.8 1.3 3 0.7 0.3 1.2 -0.4 1.2 -1.6 0 -1.2 0.5 -2.1 1 -2.1 0.6 0 1 1 1 2.1 0 1.2 0.8 2.8 1.8 3.5 1.5 1.2 1.2 1.3 -2.5 1.4 -3.6 0 -4.3 -0.3 -4.3 -2z"/>
  <path d="M141.1 342 c0 -0.8 0.4 -2.4 0.9 -3.5 l0.9 -2 0 2 c0 1.1 -0.4 2.7 -0.9 3.5 -0.9 1.3 -1 1.3 -0.9 0z"/>
  <path d="M142.7 323.2 c-1.6 -0.7 -1.5 -1 0.8 -4.5 1.4 -2 3.3 -3.7 4.3 -3.7 1.6 0.1 1.6 0.1 0 1.1 -2.4 1.4 -2.2 3.7 0.5 6 l2.2 1.8 -3 0 c-1.6 0 -3.8 -0.4 -4.8 -0.7z"/>
  <path d="M151.2 322.4 c-1.2 -0.8 -2.2 -2 -2.2 -2.6 0 -0.6 0.8 -0.4 1.8 0.5 1 1 2.4 1.7 3 1.7 0.6 0 1.4 0.5 1.7 1 1 1.5 -1.8 1.2 -4.3 -0.6z"/>
  <path d="M134.5 322 c-0.3 -0.5 -1.9 -1 -3.5 -1 -3.4 0 -4.5 -1.3 -3 -3.7 0.9 -1.5 1 -1.4 0.5 0.7 -0.6 2.3 -0.4 2.3 2.4 -0.9 1.7 -1.8 3.1 -2.8 3.1 -2.1 0 1 0.3 1 1.5 0 1.7 -1.4 2 -4.6 0.5 -5.5 -0.5 -0.3 -1 -1.4 -0.9 -2.3 0 -0.9 0.3 -1.2 0.5 -0.6 0.3 0.7 1.4 1 2.5 0.7 1.7 -0.5 1.9 -0.2 1.3 2.1 -0.5 2 -0.2 2.6 0.9 2.6 2.1 0 3 1.7 2.1 3.8 -0.4 0.9 -0.8 2.4 -0.8 3.2 -0.1 0.8 -1.2 1.7 -2.5 1.8 -1.9 0.3 -2.1 0.6 -1 1.3 1.1 0.7 0.9 0.9 -0.8 0.9 -1.2 0 -2.5 -0.4 -2.8 -1z m-0.5 -3.6 c0 -1.4 -0.3 -1.4 -1.5 -0.4 -0.8 0.7 -1.5 1.4 -1.5 1.6 0 0.2 0.7 0.4 1.5 0.4 0.8 0 1.5 -0.7 1.5 -1.6z"/>
  <path d="M123.9 318.9 c-0.1 -0.8 -0.1 -1.7 0 -2.1 0 -0.5 -0.4 -0.8 -1 -0.8 -1.1 0 -0.7 -12.6 0.5 -13.7 0.3 -0.4 0.6 -0.1 0.6 0.6 0 0.6 1 1.6 2.3 2.1 1.7 0.7 1.8 0.9 0.5 0.9 -2 0.1 -2.4 1.6 -0.8 2.6 0.6 0.4 0.7 1.1 0.4 1.7 -0.4 0.6 -0.9 2.9 -1.1 5.1 -0.3 4.1 -1.2 6.2 -1.4 3.6z"/>
  <path d="M103.7 313.9 c-1.2 -1.8 -1.5 -1.9 -1 -0.5 0.5 1.6 0.3 1.8 -1.1 1.3 -1 -0.4 -2 -0.7 -2.2 -0.7 -0.2 0 -0.4 -0.9 -0.4 -2 0 -2.8 4.5 -2.7 6 0.1 1.7 3.1 0.7 4.5 -1.3 1.8z"/>
  <path d="M142.4 302.5 c1.5 -1.4 3.1 -2.5 3.7 -2.5 0.5 0 0.9 -0.8 0.9 -1.7 0 -1.6 0.2 -1.6 1.1 -0.3 0.8 1.2 0.9 1 0.4 -0.7 -0.9 -3.3 0.4 -7 3.2 -8.8 1.8 -1.2 2.8 -1.4 3.6 -0.6 2.5 2.5 2.7 0.9 0.2 -2 -3.1 -3.7 -2.8 -5.4 0.8 -5.3 1.6 0 2.7 -0.5 2.7 -1.3 0 -0.7 0.7 -1.3 1.6 -1.3 1.4 0 1.4 -0.3 0.4 -1.5 -1.1 -1.3 -1 -1.4 0.3 -0.9 1.2 0.4 1.5 1.4 1 3.7 -0.5 2.5 -0.4 2.9 1 2.4 1 -0.4 1.7 -0.2 1.7 0.3 0 0.6 -1.1 1 -2.4 1 -2.9 0 -3.9 2 -1.7 3.7 1.9 1.5 3.5 1.7 2.6 0.4 -0.3 -0.5 0.5 -2.2 1.8 -3.7 1.6 -1.8 2.6 -2.4 3.1 -1.6 0.4 0.7 0.3 1.2 -0.3 1.2 -0.6 0 -0.8 1.2 -0.4 3.1 1 5.4 -3 9.7 -11.4 12.3 -1.9 0.6 -2.3 0.4 -2.3 -1.3 0 -1.2 -0.4 -2.1 -1 -2.1 -0.5 0 -1 1 -1 2.3 0 1.6 -0.9 2.8 -2.7 3.7 -1.6 0.7 -4 1.9 -5.5 2.6 -3.9 2.1 -4.4 1.7 -1.4 -1.1z"/>
  <path d="M126.6 301.9 c-1.4 -1.1 -2.4 -2.5 -2 -3 0.6 -1.1 -1.3 -3.9 -2.8 -3.9 -0.5 0 -0.4 1 0.2 2.3 0.7 1.4 0 0.9 -1.9 -1.3 -4.1 -4.6 -7.3 -10 -6 -10 0.6 0 0.7 -0.5 0.3 -1.1 -0.5 -0.8 -0.8 -0.8 -1.4 0 -0.4 0.8 -1.7 -0.1 -3.5 -2.5 -1.6 -2.1 -2.3 -3.4 -1.7 -3 1.4 0.8 1.5 -0.3 0.3 -2.2 -0.4 -0.8 -1.6 -1.2 -2.6 -1 -1 0.2 -2 -0.3 -2.3 -1.1 -0.3 -0.9 0 -1.1 0.9 -0.7 0.8 0.4 0.5 0.1 -0.5 -0.8 -1.6 -1.3 -1.7 -1.6 -0.4 -2.1 0.8 -0.3 2.7 -0.1 4.3 0.5 2.2 0.8 3 0.8 3.7 -0.2 0.8 -1 1.1 -1 1.5 0 0.2 0.6 1 0.9 1.6 0.6 0.8 -0.5 0.8 -0.2 0 0.7 -1.7 1.8 -1.6 2.9 0.2 2.9 0.8 0 1.5 0.5 1.5 1.2 0 1.2 5.8 6.8 7.1 6.8 0.5 0 0.6 -0.8 0.3 -1.7 -0.5 -1.7 -0.5 -1.7 0.9 0 1.6 1.9 3.7 2.3 3.7 0.7 0 -1.6 2 -1.2 2.7 0.6 0.4 1 -0.4 2.4 -2.3 4 -1.6 1.3 -2.4 2.3 -1.7 2.4 0.6 0 1.5 1 1.8 2.1 0.5 1.5 1 1.8 1.5 0.9 0.5 -0.8 0.9 -0.5 1.3 1 0.4 1.7 1.2 2.1 3.4 1.8 2.6 -0.3 4.9 -3.8 2.4 -3.8 -0.6 0 -0.8 0.6 -0.5 1.4 0.4 0.9 -0.3 1.4 -2 1.4 -1.6 0 -2.6 -0.6 -2.6 -1.5 0 -0.8 0.4 -1.2 0.9 -0.9 0.4 0.3 1.6 -0.3 2.6 -1.4 1 -1.1 1.4 -2 0.8 -2 -0.5 0 -0.7 -1.4 -0.5 -3.1 0.4 -2.6 0.2 -3 -1.4 -2.7 -1.1 0.2 -2.8 -0.6 -4 -1.8 -1.4 -1.4 -2.5 -1.9 -3.1 -1.3 -0.6 0.6 -2 0 -3.7 -1.6 -2.6 -2.4 -2.9 -2.5 -4.1 -0.9 -0.9 1.3 -1.4 1.4 -2 0.5 -1.5 -2.6 1.1 -3.2 7 -1.6 3.3 0.8 6.8 1.5 8 1.5 2.4 0.1 5.5 2.2 5.5 3.9 0 0.6 0.7 1.1 1.5 1.1 0.8 0 1.5 0.7 1.5 1.6 0 1.1 0.6 1.4 2.2 0.8 2.1 -0.6 2.2 -0.5 0.8 1.1 -1.4 1.7 -1.3 1.7 1.8 -0.1 2.3 -1.3 2.8 -2 1.8 -2.2 -0.9 -0.2 -1.6 -1 -1.6 -1.7 0 -2.6 1.7 -2.4 4.6 0.6 1.9 1.9 2.3 2.8 1.1 2.4 -1.4 -0.6 -1.6 -0.3 -1.1 1.1 0.4 1.4 0.3 1.6 -0.4 0.5 -1.6 -2.2 -6 1.4 -6.8 5.5 -0.3 1.9 -1 3.4 -1.5 3.4 -0.5 0 -0.9 0.7 -0.9 1.6 0 4 -8.4 5.9 -12.4 2.9 -2.6 -1.9 -4.2 -1.9 -2.6 0 0.7 0.8 2.7 1.9 4.4 2.4 2.2 0.7 2.5 0.9 1 1 -1.2 0.1 -3.3 -0.8 -4.8 -2z m12.5 -4.3 c2.2 -2.3 3.4 -6.6 1.7 -6.6 -0.4 0 -0.8 0.8 -0.8 1.7 0 2.3 -3 5.3 -5.3 5.3 -1.1 0 -2.9 -0.8 -4 -1.7 -1.9 -1.7 -2 -1.7 -0.9 0.4 2.1 3.9 6 4.3 9.3 0.9z m-18.3 -4.8 c-0.2 -0.6 -1 -1.4 -1.6 -1.6 -0.7 -0.2 -1 0.2 -0.6 1.2 0.7 1.8 2.8 2.2 2.2 0.4z"/>
  <path d="M109 298.5 c0 -1.8 -0.5 -2.5 -1.9 -2.5 -1.2 0 -1.9 -0.7 -1.9 -1.7 0 -1 -0.3 -2.7 -0.7 -3.7 -0.7 -1.7 -0.5 -1.6 2.3 0.4 1.8 1.3 3.2 2.7 3.2 3 0 0.4 1.2 2 2.6 3.6 1.8 2 2.4 2.3 2 1 -0.6 -1.6 -0.4 -1.7 0.9 -0.6 2 1.7 0.3 3 -3.7 3 -2.3 0 -2.8 -0.4 -2.8 -2.5z"/>
  <path d="M185.8 290.8 c-2.7 -1.1 -4.8 -2.5 -4.8 -3 0 -0.6 0.8 -0.7 1.8 -0.3 6.8 2.9 9.3 3.4 11.9 2.5 5.7 -2.1 5.7 -2.4 0 -3 -3.9 -0.5 -6.3 -1.4 -7.2 -2.6 -1.7 -2.2 -2 -5.4 -0.5 -5.4 0.6 0 1 1.1 1 2.5 0 2.3 0.4 2.5 4.3 2.5 2.3 0 5.2 0.3 6.4 0.6 1.6 0.5 2.5 -0.1 3.7 -2.3 1.4 -2.5 1.5 -2.6 1.6 -0.6 0 1.2 -1.5 4.1 -3.3 6.5 -3.9 5.2 -7.6 5.8 -14.9 2.6z"/>
  <path d="M110.5 287.3 c-1.4 -1.4 -1.8 -1.4 -2.6 -0.2 -0.5 0.8 -0.9 1 -0.9 0.4 0 -3 1.7 -3.4 4 -1 2.6 2.8 2.1 3.5 -0.5 0.8z"/>
  <path d="M143.8 280.8 c-0.4 -0.9 -0.2 -1.9 0.5 -2.2 0.9 -0.3 0.8 -0.8 -0.3 -1.5 -1.7 -1.2 -0.6 -1.4 2.8 -0.5 1.2 0.4 2.2 1.1 2.2 1.6 0 0.5 -0.4 0.6 -1 0.3 -0.5 -0.3 -1 -0.1 -1 0.5 0 0.6 -0.4 0.9 -0.9 0.5 -0.5 -0.3 -1.1 0.3 -1.3 1.2 -0.3 1.7 -0.4 1.7 -1 0.1z"/>
  <path d="M167.5 279.9 l-4 -1.8 3.8 0 c2.5 -0.1 4 0.4 4.4 1.4 0.8 2.3 0.2 2.4 -4.2 0.4z"/>
  <path d="M155.7 278.3 c-1.1 -1.1 -0.8 -2.3 0.6 -2.3 0.8 0 1.4 0.7 1.4 1.5 0 1.6 -0.9 1.9 -2 0.8z"/>
  <path d="M117.3 271.5 c0 -0.8 0.6 -1.5 1.4 -1.5 0.7 0 1.3 0.7 1.3 1.5 0 0.8 -0.6 1.5 -1.3 1.5 -0.8 0 -1.4 -0.7 -1.4 -1.5z"/>
  <path d="M182.3 267.4 c-2.8 -2.5 -2.9 -3.4 -0.5 -3.4 0.9 0 2.4 -0.5 3.2 -1 1.3 -0.9 1.2 -1.2 -0.4 -2.5 -1.4 -1 -1.6 -1.8 -0.9 -2.7 1.4 -1.7 -0.2 -5.8 -2.2 -5.8 -1.2 0 -1.5 0.6 -1 2 0.5 1.6 0.2 2 -1.4 2 -1.4 0 -2.1 -0.6 -2.1 -2 0 -1.3 -0.7 -2 -1.8 -2 -2.8 0 -4.2 -2 -4.2 -5.9 0 -2 -0.7 -6.7 -1.7 -10.5 -1.6 -6.7 -1.6 -7 0.9 -18.5 1.5 -6.4 2.8 -12.2 3 -13 0.1 -0.7 -0.2 -1.5 -0.8 -1.8 -1.8 -0.6 -3.3 4.5 -4.4 15.7 -0.6 5.7 -1.4 10.8 -1.9 11.3 -0.4 0.4 -1.3 -1.1 -1.9 -3.4 -1.6 -6.3 0.3 -20.7 3.6 -28 2.5 -5.4 2.9 -5.9 6.1 -5.9 2.6 0 3.2 -0.3 2.7 -1.6 -0.3 -0.9 -0.6 -1.8 -0.6 -2 0 -0.2 -1.3 -0.4 -3 -0.4 -2.8 0 -3 -0.2 -3 -3.9 0 -3.3 0.4 -4 2.3 -4.4 l2.2 -0.4 -2.3 -0.2 c-1.8 -0.1 -2.9 -1.3 -4.7 -5.3 -1.6 -3.5 -3.5 -6.1 -5.9 -7.6 -2.2 -1.3 -3.6 -3 -3.6 -4.2 0 -1.1 -0.4 -2 -1 -2 -0.5 0 -1 -1.4 -1 -3 l0 -3 3.9 2.6 c2.4 1.5 3.8 3.1 3.5 3.9 -0.5 1.1 3.8 4.3 6.1 4.6 4.2 0.6 6.3 2.9 2.5 2.9 -1.3 0 -1.8 0.5 -1.4 1.5 0.5 1.1 1 1.2 2.6 0.4 2.3 -1.2 3.4 -0.2 4.4 4.1 0.3 1.4 0.9 3.9 1.4 5.5 0.7 2.2 0.9 2.3 0.6 0.5 -0.2 -1.4 -0.1 -3.4 0.3 -4.4 0.7 -1.7 1 -1.6 3.4 1.6 1.5 1.9 2.7 4.1 2.7 5 0 0.8 0.6 2.3 1.4 3.4 1.3 1.7 1.4 1.4 0.5 -2.5 -0.6 -2.6 -0.6 -4.7 -0.1 -5 0.5 -0.3 1.1 -1.3 1.4 -2.1 0.5 -1.5 4.2 15.8 3.7 17.5 -0.2 1 0.9 9.4 1.7 13 0.4 1.4 0.3 1.6 -0.4 0.7 -0.5 -0.8 -1.3 -1.2 -1.8 -1 -0.5 0.1 -1 -1.2 -1.2 -3 -0.2 -1.8 -0.7 -3 -1.2 -2.7 -0.4 0.3 -0.7 1.3 -0.5 2.3 1.2 6 1.6 7.2 2.3 6.8 0.4 -0.2 0.8 4.3 0.9 10 0.1 5.7 0.7 12.3 1.4 14.6 0.6 2.4 1.5 9.3 1.9 15.3 0.8 10.9 0.8 11 -1.7 13.3 -1.3 1.2 -2.9 2 -3.4 1.7 -0.5 -0.4 -1.3 0.5 -1.8 1.8 -1.3 3.3 -4.1 3.7 -6.8 1.1z m2.7 -23.1 c0 -2.7 0.3 -10.5 0.7 -17.5 0.5 -10.8 0.4 -12.8 -0.8 -12.8 -2 0 -3.8 -5.2 -4.6 -12.7 -0.8 -8.4 -2.3 -8 -2.3 0.5 0 3.7 -0.8 8.7 -1.6 11.2 -2 5.4 -2.2 20 -0.5 25.3 0.9 2.8 1.8 3.6 3.9 3.9 2.2 0.2 2.8 0.9 3 3.6 0.5 5 2.2 3.8 2.2 -1.5z"/>
  <path d="M132.8 265.1 c-4.4 -1.9 -5 -4.1 -1.1 -4.1 4.1 0 9.3 2.2 9.3 4 0 2 -3.6 2.1 -8.2 0.1z"/>
  <path d="M120.7 264.4 c0.3 -0.8 0.9 -1.4 1.5 -1.4 0.5 0 0.6 -0.4 0.3 -1 -0.4 -0.6 0.5 -1 1.9 -1 3.8 0 3.2 2.5 -0.8 3.7 -2.8 0.9 -3.4 0.8 -2.9 -0.3z"/>
  <path d="M112 254.5 c-3.1 -2.3 -3.2 -2.5 -1.1 -2.5 3.1 0 6.1 1.8 6.1 3.5 0 2.1 -1.1 1.9 -5 -1z"/>
  <path d="M156.6 255.1 c-1 -1.5 0.6 -7.1 2 -7.1 1.5 0 2.2 2.5 1.6 5.8 -0.4 2.2 -2.6 3 -3.6 1.3z"/>
  <path d="M142.1 247.4 c-1.7 -1.4 -3.1 -3.2 -3.1 -4 0 -0.8 -0.7 -1.4 -1.6 -1.4 -0.9 0 -2.9 -0.9 -4.5 -2.1 -1.8 -1.2 -4.2 -2 -6.2 -1.8 -1.7 0.1 -4 0.1 -4.9 0 -2.4 -0.2 -2.3 -3.1 0.1 -3.1 1.6 0 1.8 -0.6 1.4 -4.5 -0.4 -2.8 0 -5.9 1 -8.4 1.5 -3.6 1.5 -4.8 0.2 -12.3 -0.8 -4.6 -1.5 -12.2 -1.5 -17 l0 -8.8 3.5 0 3.5 0 -0.6 -7 -0.7 -7 3.2 0 c2.4 0 3.1 -0.4 3.1 -2 0 -2.7 2.6 -2.5 3.4 0.3 0.8 3.1 0.7 8.9 -0.1 8.4 -0.5 -0.3 -0.7 3.4 -0.6 8.1 l0.2 8.7 -1.4 -7.9 c-1.9 -11.1 -3.4 -11.9 -2.9 -1.5 0.4 6 0.2 7.9 -0.5 6.8 -0.6 -0.9 -2.2 -2.4 -3.7 -3.4 l-2.7 -1.7 0.7 3.6 c0.4 2 0.3 4.4 -0.3 5.3 -0.5 1.1 -0.6 3.6 0 6.3 2.7 13.9 2.9 17.1 1.8 21.3 -0.7 2.3 -1.6 4.6 -2 5.1 -1.2 1.4 0.9 4.6 3.1 4.6 1.1 0 2 0.6 2.1 1.3 0 0.6 0.4 0.3 0.8 -0.8 0.8 -1.8 1 -1.7 2.7 1.2 1.9 3.3 3.4 4.3 3.4 2.2 0 -0.6 0.9 -0.8 2.1 -0.4 1.5 0.5 3.3 -0.4 7 -3.5 l4.9 -4.1 0 3.5 c0 3 -0.6 3.9 -4.5 6.6 -4.9 3.4 -5.3 4.1 -3 6.4 1.6 1.6 2.1 5.6 0.6 5.6 -0.5 0 -2.3 -1.2 -4 -2.6z"/>
  <path d="M142.6 203.5 c0.3 -2.2 1 -4.4 1.5 -4.9 1.4 -1.5 1 2.5 -0.6 5.9 l-1.5 3 0.6 -4z"/>
  <path d="M156 197.1 c-1.6 -3.1 -1.2 -5.1 1 -5.1 1.6 0 2 0.7 2 3.5 0 3.9 -1.4 4.6 -3 1.6z"/>
  <path d="M147 150.1 c-2.1 -4 -1.2 -6.6 2.8 -8.4 2.1 -0.9 4.4 -1.7 5 -1.7 2 0 1.3 3.9 -0.9 6.1 -1.8 1.8 -2 2.5 -1 4 1 1.7 0.8 1.9 -1.9 1.9 -1.9 0 -3.3 -0.7 -4 -1.9z"/>
 </g>
 <g fill="#bb7945">
  <path d="M143.4 403.3 c-0.4 -2.1 -1.5 -6.2 -2.6 -9.2 -1 -3 -2.3 -9.3 -2.9 -14 -1.1 -7.9 -1 -9.3 1.1 -16.8 2.1 -7.8 4 -10.8 4 -6.3 0 1.1 0.8 2.3 1.8 2.6 0.9 0.3 2.9 1 4.4 1.6 l2.7 1 -2.1 2.9 c-2 2.7 -2.2 4.2 -2.3 21.2 -0.1 10.1 -0.5 18.9 -0.9 19.6 -1.3 2.1 -2.5 1.1 -3.2 -2.6z"/>
  <path d="M143.8 323.3 c-1 -0.2 -1.8 -0.9 -1.8 -1.4 0 -1.7 3 -5.7 4.8 -6.4 1.4 -0.5 1.5 -0.4 0.5 0.6 -1.8 1.8 -1.6 4.8 0.3 5.6 1.3 0.5 1.3 0.7 0.2 1.4 -0.7 0.5 -1.5 0.8 -1.8 0.8 -0.3 -0.1 -1.3 -0.3 -2.2 -0.6z"/>
  <path d="M129.7 319.5 c0.4 -1.2 0.8 -1.3 1.3 -0.4 0.5 0.6 1.5 0.9 2.5 0.6 2 -0.8 1.1 -2.7 -1.3 -2.7 -1.4 0 -1.4 -0.2 -0.3 -0.9 0.8 -0.5 1.9 -0.7 2.6 -0.5 1.6 0.6 3.9 -2.2 3 -3.7 -0.5 -0.8 0 -0.9 1.6 -0.4 3.4 1 4.3 2.1 3.4 4.2 -0.5 1 -0.9 2.5 -0.9 3.3 -0.1 1.1 -1.6 1.6 -6.3 1.8 -5.5 0.3 -6.2 0.1 -5.6 -1.3z m11.3 -5 c0 -0.8 -0.5 -1.5 -1.1 -1.5 -0.5 0 -0.8 0.4 -0.5 0.9 0.4 0.5 0 1.2 -0.6 1.4 -0.8 0.3 -0.6 0.6 0.5 0.6 0.9 0.1 1.7 -0.6 1.7 -1.4z"/>
  <path d="M117 318.9 c-1.4 -0.6 -3.7 -1.2 -5.2 -1.4 -4.7 -0.6 -6.8 -1.6 -7.9 -3.6 -0.8 -1.6 -1.3 -1.8 -2.5 -0.8 -0.8 0.6 -1.6 1 -1.9 0.8 -1.1 -1.2 -0.4 -16.9 1.1 -22.1 0.3 -1 1.5 -1.8 2.7 -1.8 2.2 0 3.8 1.3 9.7 8 2.5 2.7 2.9 3 1.9 1 -1.2 -2.5 -1.2 -2.5 0.9 -0.6 1.2 1 2.1 2.1 2 2.5 -0.1 0.3 0.4 1.9 1 3.4 1.6 3.9 0.6 7.4 -2.4 8.1 -1.4 0.4 -3 0.4 -3.6 0 -0.7 -0.4 -0.8 -0.3 -0.4 0.4 2.1 3.5 11.4 -1.7 10.2 -5.6 -0.3 -0.9 -0.1 -2.4 0.4 -3.2 1.8 -2.8 2.5 1.6 2.1 12.8 -0.1 2.8 -0.4 3.2 -2.8 3.1 -1.6 0 -3.9 -0.5 -5.3 -1z m-11 -8 c-0.7 -1.1 -1.4 -1.9 -1.6 -1.6 -0.7 0.7 0.7 3.7 1.7 3.7 0.6 0 0.5 -0.9 -0.1 -2.1z"/>
  <path d="M143.6 302.6 c0.6 -1.5 3.4 -3 3.4 -1.8 0 0.4 -0.9 1.3 -2 1.9 -1.6 1.1 -1.8 1 -1.4 -0.1z"/>
  <path d="M129.4 300.4 c-1.8 -1.5 -1.8 -1.5 0.6 -1 1.4 0.3 3.1 0.6 3.8 0.6 0.6 0 1.2 0.5 1.2 1 0 1.5 -3.4 1.2 -5.6 -0.6z"/>
  <path d="M124.7 298.5 c0.3 -1 0 -2.1 -0.8 -2.6 -1.1 -0.7 -1.1 -0.9 0.4 -0.9 1.8 0 2.4 3.4 0.7 4.5 -0.6 0.4 -0.7 -0.1 -0.3 -1z"/>
  <path d="M120.2 296 c-1.7 -2.3 -1.9 -2.8 -0.6 -2.3 1.2 0.4 1.5 0.2 1.2 -0.8 -0.3 -0.8 -1.2 -1.4 -2.2 -1.4 -1.7 0 -3.1 -1.5 -7.8 -8 -1.5 -2 -1.7 -2.6 -0.5 -1.6 1.1 0.9 1.7 1 1.7 0.2 0 -0.6 0.8 -1.1 1.8 -1.1 1.7 0 6.2 5.6 6.2 7.8 0 0.7 0.5 1.2 1 1.2 0.6 0 1 1.5 0.8 3.3 -0.1 1.8 0.2 3.8 0.6 4.5 1.4 2.3 -0.1 1.2 -2.2 -1.8z m-3.3 -8.3 c-0.8 -0.7 -1.8 -2 -2.2 -2.9 -0.3 -1 -1.1 -1.8 -1.7 -1.8 -1.3 0 -0.5 1.6 2.3 4.7 1.1 1.3 2.3 2 2.6 1.7 0.3 -0.3 -0.1 -1.1 -1 -1.7z"/>
  <path d="M157.9 287.8 c-2.6 -2.7 -2.9 -3.4 -1.6 -3.6 0.9 -0.2 1.7 -0.8 1.7 -1.4 0 -0.6 -1.1 -0.8 -2.7 -0.4 -2.7 0.6 -2.7 0.6 -0.9 -0.9 1.2 -0.9 2.8 -1.2 3.9 -0.9 1.6 0.5 1.9 0.3 1.4 -1 -0.4 -1 -0.1 -1.6 0.8 -1.6 0.9 0 1.5 0.9 1.5 2.1 0 1.5 0.5 1.9 1.6 1.5 0.8 -0.3 1.2 -0.2 0.9 0.4 -0.3 0.6 -1.7 1 -3.1 1 -3.4 0 -3.3 3.6 0.1 4.4 1.4 0.4 2.5 1.3 2.5 2.1 0 2.5 -2.6 1.7 -6.1 -1.7z"/>
  <path d="M163 286.6 c0 -0.6 3.8 -4.6 4.3 -4.6 1.4 0 -0.7 3.9 -2.4 4.3 -1 0.3 -1.9 0.4 -1.9 0.3z"/>
  <path d="M146.3 280.8 c0 -2.5 0.2 -2.7 1 -1.1 0.6 1 1.7 2.3 2.4 2.8 1 0.8 0.8 1 -1 1.1 -2 0.1 -2.4 -0.3 -2.4 -2.8z"/>
  <path d="M167.1 279.9 c-2.5 -1.1 -6.3 -3.7 -8.5 -5.7 -3.3 -3 -5.9 -4.3 -12.9 -6.1 -5.5 -1.5 -8.7 -2.9 -8.7 -3.7 0 -0.8 1 -1.4 2.3 -1.5 2.1 0 2.1 -0.1 -0.3 -1.1 -9.8 -4.1 -15.8 -7.6 -20.8 -12 -3.1 -2.8 -7.2 -5.7 -8.9 -6.6 -2.7 -1.3 -3.3 -2.1 -3.3 -4.9 l0 -3.3 5.4 0 c3.4 0 5.8 0.5 6.5 1.4 1 1.2 0.7 1.5 -1.6 1.8 -2.7 0.3 -2.6 0.4 3.1 4.8 10.7 8.2 13 9.6 20.6 12.8 6.4 2.6 9.8 3.6 14.2 4.1 0.4 0.1 0.8 1.3 1 2.8 0.2 1.5 1.2 3.2 2.3 3.8 4.4 2.2 8.6 5.8 10 8.5 0.8 1.6 2.3 3.1 3.4 3.5 2.2 0.7 3.7 3.5 1.8 3.4 -0.7 0 -3.2 -0.9 -5.6 -2z"/>
  <path d="M155.5 278 c-0.8 -1.3 -0.1 -2.4 1.4 -1.9 0.6 0.3 0.7 1 0.2 1.8 -0.6 1 -1 1 -1.6 0.1z"/>
  <path d="M116.4 257.1 c-2.3 -1 -5.8 -3.6 -8 -5.7 l-3.9 -3.9 3 -0.3 c1.9 -0.3 3.5 0.2 4.5 1.5 0.8 1 3.2 2.6 5.3 3.5 2.8 1.4 3.7 2.4 3.7 4.3 0 1.4 -0.1 2.5 -0.2 2.5 -0.2 0 -2.1 -0.9 -4.4 -1.9z"/>
  <path d="M147 147.5 c0 -1.3 1 -5.4 2.1 -9 2.2 -6.5 2.2 -6.5 5.9 -6.5 4.6 0 5.4 -1.6 3.7 -7.1 -1.1 -3.6 -2.7 -5.3 -2.7 -2.8 0 0.6 -1.2 0.9 -2.7 0.7 -2 -0.2 -2.9 -1 -3.4 -3.1 -0.6 -2.4 -0.5 -2.6 0.7 -1.6 1.1 0.9 1.4 0.8 1.4 -1 0 -1.1 0.6 -2.1 1.3 -2.1 1.4 0 3.7 -4 3.7 -6.4 0 -0.7 1.1 -2.3 2.4 -3.5 1.3 -1.2 2.6 -3.5 2.9 -5 0.7 -3.3 3.2 -6.1 5.3 -6.1 1.8 0 6.4 4.8 6.4 6.7 0 3.5 -4.3 7.1 -10.6 8.9 -6.3 1.8 -6.3 1.9 -4.5 3.9 1 1.1 2.1 3.6 2.5 5.6 0.3 2 1.5 4.4 2.6 5.4 2.4 2.2 2.6 4.8 0.5 6.5 -2 1.7 -2 5.4 0 4.6 2 -0.7 6.7 1.4 6.2 2.8 -0.5 1.6 -5.1 3.7 -5.5 2.6 -0.2 -0.6 -1.3 -1 -2.3 -1 -1.1 0 -3.4 -0.7 -5.1 -1.6 l-3.1 -1.6 0.7 2.6 c0.7 3 -1.8 7.6 -4.1 7.6 -1.3 0 -1.3 0.3 -0.3 1.5 1.1 1.3 0.8 1.5 -1.4 1.5 -2.1 0 -2.6 -0.5 -2.6 -2.5z"/>
  <path d="M173.5 128.1 c-2.6 -1.3 -2.7 -1.6 -1 -1.9 1.1 -0.2 2.3 -0.9 2.7 -1.5 0.8 -1.4 2.1 1.5 1.6 3.5 -0.2 1.1 -0.8 1.1 -3.3 -0.1z"/>
  <path d="M149 111.3 c0 -3.5 0 -3.6 2 -1.8 2.4 2.2 2.6 4.1 0.4 4.9 -2.4 0.9 -2.4 0.9 -2.4 -3.1z"/>
 </g>
 <g fill="#9e8960">
  <path d="M141 354.8 c0 -2.5 0.3 -2.9 1 -1.8 1.3 2 1.3 5 0 5 -0.5 0 -1 -1.5 -1 -3.2z"/>
  <path d="M129.4 320.1 c0.3 -0.5 1.5 -0.7 2.5 -0.4 2.8 0.7 3.6 -1.6 0.9 -2.6 -2.1 -0.9 -1.1 -1.6 1.8 -1.2 0.6 0.1 1.7 -0.5 2.4 -1.3 0.9 -1.2 0.9 -2.1 -0.2 -4.3 -1.3 -2.6 -1.3 -2.9 0.4 -2.9 1.4 0 1.8 0.6 1.5 1.8 -0.3 1 0.2 2.2 1.1 2.8 1 0.5 1.2 1 0.5 1 -0.6 0 -1.5 1 -1.9 2.3 -0.4 1.2 -1.2 2.5 -1.8 3 -0.8 0.5 -0.6 1 0.4 1.7 1.1 0.7 0.2 1 -3.3 1 -2.7 0 -4.6 -0.4 -4.3 -0.9z"/>
  <path d="M122.4 313.1 c0.8 -1.4 1.2 -4.2 1 -6.1 -0.3 -2.5 -0.1 -3.1 0.7 -2.3 0.6 0.6 1.2 2.9 1.3 5 0.2 3.2 -0.2 4.1 -2.1 5 -2.2 1.1 -2.2 1 -0.9 -1.6z"/>
  <path d="M99 312 c0 -1.4 0.6 -2 2.3 -1.9 1.2 0 1.6 0.3 1 0.6 -0.7 0.2 -1.3 1.1 -1.3 1.9 0 0.8 -0.4 1.4 -1 1.4 -0.5 0 -1 -0.9 -1 -2z"/>
  <path d="M144 302.4 c0 -1.1 3.9 -4.2 4.6 -3.6 0.4 0.4 0.4 -0.3 0.1 -1.6 -0.3 -1.3 -0.1 -3.6 0.4 -5 1 -3.1 4.8 -5.9 5.8 -4.4 0.6 1 4.5 3.2 5.6 3.2 0.4 0 -0.8 -1.4 -2.6 -3.2 -2.8 -2.7 -3.1 -3.3 -1.6 -3.6 2 -0.4 2.3 -1.8 0.5 -2.5 -0.8 -0.3 -0.7 -0.6 0.4 -0.6 1.2 -0.1 1.8 0.9 2 3.2 0.2 1.7 0.8 3.1 1.3 3 0.6 0 1.9 0.4 3 1 1.7 0.9 1.8 0.8 0.8 -0.5 -1.1 -1.2 -1 -1.9 0.6 -3.6 1 -1.2 2 -2.2 2.2 -2.2 0.2 0 0.5 1.6 0.7 3.5 0.3 4.9 -2 9 -6 10.4 -1.8 0.7 -4.1 1.7 -5 2.2 -2.6 1.3 -12.8 4.8 -12.8 4.3z m16.1 -8 c1.2 -1.4 1.1 -1.6 -0.5 -1.3 -1.1 0.2 -2.1 1 -2.4 1.7 -0.5 1.7 1.3 1.5 2.9 -0.4z"/>
  <path d="M129.2 300.4 c-1.3 -0.9 -2.9 -1.3 -3.7 -1 -0.9 0.3 -1.2 0 -0.8 -1.1 0.3 -0.8 0 -1.9 -0.8 -2.4 -2.2 -1.3 -2.9 -1.1 -2.2 0.9 0.5 1.4 0.3 1.3 -1 -0.3 -1 -1.3 -1.2 -2.2 -0.5 -2.6 1.5 -0.9 -0.1 -3.1 -1.8 -2.5 -1.7 0.7 -2.9 -1 -1.2 -1.8 1 -0.3 0.8 -0.9 -0.4 -1.9 -1 -0.8 -1.8 -1.9 -1.8 -2.5 0 -1.6 -2.1 -2.6 -2.9 -1.4 -0.4 0.7 -1.2 0.3 -2 -1.1 -1.3 -2 -1.3 -2.1 0.2 -0.8 2.5 2 2 0.1 -0.7 -3.3 -1.7 -2 -2.9 -2.7 -4.1 -2.2 -1.2 0.4 -1.6 0.2 -1.2 -0.8 0.3 -0.7 0.1 -1.8 -0.5 -2.4 -1.8 -1.8 0.9 -2.3 4.4 -0.9 1.8 0.8 4 1.2 4.8 1 1.2 -0.4 1.2 -0.3 0.1 0.5 -1 0.7 -1.1 1.4 -0.2 3.1 1.3 2.4 2.3 2.8 1.5 0.6 -0.3 -0.8 1.3 0.4 3.7 2.8 2.4 2.3 4.2 4.5 4.1 5 -0.1 0.4 0.2 0.7 0.7 0.7 0.5 0 1.8 0.3 2.8 0.7 1.5 0.5 1.5 0.2 -0.4 -1.9 -1.3 -1.3 -2.3 -2.8 -2.3 -3.4 0 -0.5 0.9 0.2 2 1.6 1.6 2.2 2 2.3 2.5 0.8 0.8 -1.9 3.5 -1.3 3.5 0.8 0 1.7 -5 4.3 -7 3.6 -1 -0.3 -0.9 0.2 0.5 1.6 3.2 3.3 4.6 5.2 4 5.2 -0.3 0 0.2 1.1 1 2.4 2.1 3.2 5.9 3.8 9 1.4 1.4 -1.1 2.5 -1.5 2.5 -1 0 1.5 -4.7 4.2 -7.2 4.2 -1.3 0 -3.4 -0.7 -4.6 -1.6z m-7.8 -13.9 c-0.6 -1.6 -2.4 -2.1 -2.4 -0.7 0 1.1 1.1 2.2 2.1 2.2 0.5 0 0.6 -0.7 0.3 -1.5z"/>
  <path d="M131.2 296.8 c-0.7 -0.7 -1.2 -2.1 -1.1 -3.2 0 -2 0 -2 0.9 0 1.1 2.8 2.2 3.4 4.8 2.7 2.2 -0.5 3.2 -4.3 1.2 -4.3 -0.5 0 -0.7 0.7 -0.4 1.5 0.5 1.1 0 1.4 -1.7 1.2 -1.3 -0.2 -2.5 -1 -2.7 -1.8 -0.3 -1.1 -0.2 -1.1 0.6 -0.1 0.7 1 1.3 0.7 2.6 -1.2 1 -1.7 1.2 -2.6 0.5 -2.6 -0.9 0 -0.9 -0.3 0 -1.4 1.6 -1.9 -0.6 -7.1 -2.4 -5.6 -0.9 0.7 -1.7 0.5 -2.6 -0.6 -0.8 -1 -2.7 -2.3 -4.4 -3.1 -2.9 -1.3 -2.9 -1.3 1.5 -0.7 2.5 0.4 5.1 0.7 5.8 0.7 0.6 0 1.2 0.4 1.2 0.9 0 0.4 0.7 0.8 1.5 0.8 0.8 0 1.5 0.5 1.5 1 0 2.2 3.9 5.3 5.7 4.6 1.2 -0.4 0.9 0.1 -0.7 1.4 -2 1.6 -2.1 1.9 -0.5 1.3 1.1 -0.3 3.1 -1.3 4.5 -2.2 1.9 -1.2 1.8 -0.8 -0.7 1.6 -1.8 1.7 -3.3 3.6 -3.3 4.2 0 0.6 -0.5 1.1 -1.1 1.1 -0.5 0 -0.7 -0.5 -0.3 -1.1 0.4 -0.7 0.1 -1 -0.7 -0.7 -0.8 0.3 -1.6 1.3 -1.8 2.4 -0.7 4.2 -5.2 5.9 -7.9 3.2z"/>
  <path d="M109 295.1 c-0.8 -0.6 -1.8 -0.7 -2.4 -0.4 -0.5 0.3 -0.6 0.1 -0.2 -0.5 0.4 -0.7 -0.3 -1 -2.1 -0.9 -2.5 0.2 -2.8 -0.2 -3.1 -3.2 l-0.3 -3.3 2.8 2 c5.8 4.2 10.2 9.3 5.3 6.3z"/>
  <path d="M146 283.1 c0 -0.9 3.8 -1.2 4.4 -0.3 0.2 0.4 -0.7 0.8 -2 0.8 -1.3 0.1 -2.4 -0.1 -2.4 -0.5z"/>
  <path d="M183.6 267.5 c-0.3 -1 0.1 -1.5 1.3 -1.5 2.6 0 2.9 -1.5 1.5 -7.2 -1.7 -6.5 -2 -6.8 -5.8 -6.8 -4.3 0 -5 -0.9 -2.4 -3.2 1.7 -1.4 1.9 -2.1 1 -3 -0.9 -0.9 -1.2 -0.8 -1.2 0.5 0 3.2 -2.8 1.7 -4.1 -2 -0.6 -2.1 -1.4 -4.2 -1.8 -4.8 -0.5 -0.9 -1 -6.9 -1.3 -14.5 -0.1 -3.4 2.1 -14.9 3.2 -17.1 1.2 -2.1 1.3 -12.9 0.3 -12.9 -0.5 0 -2 2.7 -3.5 5.9 -2.3 5.1 -4.4 16.2 -4.9 26.8 0 1 -0.9 -0.9 -2 -4.2 -1.6 -5.1 -1.7 -6.9 -0.8 -12 1.3 -7.3 3.6 -16.2 5.1 -19.2 0.7 -1.4 0.8 -4.5 0.4 -8.4 -0.8 -6.6 -2 -9.9 -4.2 -11.2 -0.8 -0.4 -1.4 -1.5 -1.4 -2.4 0 -0.8 -1.8 -3.3 -4 -5.4 -3.2 -3.1 -4 -4.6 -4 -7.4 0 -1.9 0.2 -3.5 0.5 -3.5 1.6 0 6.3 4.4 5.8 5.6 -0.3 0.7 1.1 2.3 3.2 3.6 2.5 1.6 4.5 4.1 6.2 7.8 2.4 5.2 2.5 5.4 3.4 3.1 1.3 -3.3 2.3 -1.8 3.8 5.9 0.7 3.5 1.8 7.8 2.5 9.5 1.2 2.9 1.3 2.8 0.8 -2.1 -0.3 -3.2 0 -5.4 0.7 -5.8 0.6 -0.4 1.1 -0.1 1.1 0.8 0 0.8 0.6 1.3 1.3 1 3 -1.1 4.9 13.1 4.6 34.4 -0.1 7.7 0.2 9.1 1.4 8.6 1.6 -0.6 2.7 2.2 2.7 6.9 0 3.2 -1.6 3.6 -2.5 0.6 -1.6 -5.1 -2.5 1.4 -2.3 16.3 0.1 11.8 -0.1 16 -1.1 17.2 -1.7 2 -2.7 2 -3.5 0.1z m-0.5 -39.2 c-1.5 -17.3 -2.1 -20.9 -3.2 -19.2 -0.5 0.8 -0.9 2.5 -0.9 3.9 0 1.4 -0.9 5 -2 8 -1.7 4.9 -1.7 5.8 -0.4 7.7 0.8 1.2 1.4 3.3 1.4 4.7 0 2.3 4.7 9.2 5.7 8.2 0.3 -0.2 0 -6.2 -0.6 -13.3z m4.9 -18.5 c-0.1 -1.9 -3.9 -8.5 -4 -6.9 0 2.2 2.3 8.1 3.2 8.1 0.4 0 0.8 -0.6 0.8 -1.2z"/>
  <path d="M133.7 264.9 c-1 -0.6 -4.3 -0.9 -7.3 -0.7 -3 0.1 -5.4 0 -5.4 -0.4 0 -0.5 0.4 -0.8 1 -0.8 0.5 0 0.7 -0.7 0.4 -1.5 -0.5 -1.2 0.4 -1.5 5 -1.5 3.1 0 5.6 0.5 5.6 1 0 0.6 1.4 1 3 1 2.3 0 3 0.4 3 2 0 2.2 -2.4 2.6 -5.3 0.9z"/>
  <path d="M150.4 252.2 c-8.3 -4.4 -10.6 -6.5 -10.2 -8.9 0.2 -1.3 -0.3 -1.7 -1.8 -1.5 -2.6 0.3 -4 -1.3 -4.8 -6 -0.8 -4.6 0.7 -5 2.4 -0.8 1.6 3.9 3.9 3.8 9.6 0 l4.4 -3.1 0 2.7 c0 1.9 -1 3.6 -3.2 5.4 -2.8 2.4 -3 2.9 -1.8 4.1 0.8 0.8 3.4 2.3 5.8 3.3 2.3 1.1 4.2 2.3 4.2 2.7 0 0.4 1 0.9 2.3 1.1 1.4 0.2 2.2 1 2.2 2.2 0 3 -1.5 2.8 -9.1 -1.2z"/>
  <path d="M122.4 232.4 c-0.5 -4.3 -0.2 -6.4 1.2 -9.5 1.2 -2.8 1.4 -4.3 0.7 -4.7 -0.6 -0.4 -1.1 -4.6 -1.1 -10.4 -0.1 -7.9 0.2 -9.8 1.4 -9.8 0.8 0 1.4 0.1 1.4 0.3 0 1.5 3.1 17 3.5 17.7 0.3 0.5 -0.4 3.6 -1.5 7 -1.9 5.6 -1.9 6.2 -0.4 8.5 1 1.5 1.2 2.5 0.5 2.5 -0.6 0 -1.1 0.5 -1.1 1 0 0.6 1.1 0.8 2.5 0.4 1.9 -0.5 2.5 -0.2 2.5 1 0 1.2 -1 1.6 -4.4 1.6 l-4.5 0 -0.7 -5.6z"/>
  <path d="M123 191.5 c0 -3 0.5 -5.5 1 -5.5 0.6 0 1 -0.7 1 -1.5 0 -0.9 0.9 -1.5 2.5 -1.5 1.6 0 2.5 -0.6 2.5 -1.5 0 -2.4 2.7 -1.8 3.4 0.8 0.7 2.9 0.8 7.7 0 7.7 -0.3 0 -1.7 -0.9 -3.1 -2 -2.9 -2.3 -4.7 -1.7 -3.8 1.1 0.9 2.8 -0.4 7.9 -2.1 7.9 -1 0 -1.4 -1.4 -1.4 -5.5z"/>
  <path d="M136.7 184.3 c-0.4 -0.3 -0.7 -1.6 -0.6 -2.7 0 -1.9 0.1 -1.9 1 0.3 1 2.4 0.8 3.6 -0.4 2.4z"/>
  <path d="M134 175.1 c-0.5 -1.1 -1 -3.1 -1 -4.5 0 -2.1 0.5 -2.6 2.4 -2.6 2.3 0 3.6 1.6 3.6 4.6 0 0.9 -0.4 1.2 -1 0.9 -0.5 -0.3 -1 0.3 -1 1.4 0 2.6 -1.6 2.7 -3 0.2z"/>
  <path d="M145 148.1 c-1.5 -2.8 -1.3 -3.9 0.9 -4.6 1.1 -0.3 2.4 -1.9 3 -3.5 0.7 -2 1.7 -3 3.1 -3 2 0 2 0.1 0.3 2.7 -1 1.5 -1.2 2.4 -0.5 1.9 1 -0.6 1 -0.2 0.1 1.8 -0.7 1.4 -1.7 2.2 -2.3 1.9 -0.6 -0.4 -0.3 0.5 0.7 2 l1.7 2.7 -2.9 0 c-2 0 -3.4 -0.7 -4.1 -1.9z"/>
 </g>
 <g fill="#a29271">
  <path d="M148.8 300.4 c0.6 -0.3 1 -1 0.6 -1.5 -0.3 -0.5 0.8 -0.9 2.5 -0.9 2.3 0 3.1 -0.6 3.9 -2.7 0.9 -2.5 1.1 -2.6 1.1 -0.6 0.1 2.4 -2.7 4.7 -6.9 5.7 -1.4 0.3 -1.9 0.3 -1.2 0z"/>
  <path d="M161.3 294.9 c0.9 -0.5 1.7 -1.8 1.8 -2.7 0 -1.1 0.3 -1.2 0.6 -0.4 0.2 0.6 0.9 1 1.4 0.6 0.5 -0.3 0.9 -0.1 0.9 0.4 0 0.5 -1.1 1.4 -2.5 2 -3.2 1.5 -4.6 1.5 -2.2 0.1z"/>
  <path d="M119.7 291.2 c-1 -1 -1.7 -2.4 -1.7 -3 0 -0.7 -0.7 -1.2 -1.5 -1.2 -0.8 0 -1.5 -0.7 -1.5 -1.5 0 -0.9 -0.7 -1.8 -1.5 -2.1 -0.8 -0.4 -1.5 -1 -1.5 -1.4 0 -0.5 -1.4 -2.4 -3 -4.2 -1.7 -1.8 -2.5 -3.5 -1.9 -3.7 1.4 -0.4 10.1 8.7 9.4 10 -0.4 0.5 0.2 0.6 1.1 0.2 1.3 -0.5 1.6 -0.2 1.2 0.8 -0.7 1.8 1.7 5.3 3 4.5 0.5 -0.3 1.2 0.3 1.5 1.4 0.7 2.5 -1.4 2.6 -3.6 0.2z"/>
  <path d="M165 290.2 c0 -0.5 0.7 -1.7 1.5 -2.8 1.5 -1.9 2 -0.8 0.9 2 -0.6 1.7 -2.4 2.2 -2.4 0.8z"/>
  <path d="M121.5 287 c-0.8 -1.3 2.5 -1.3 4.5 0 1.2 0.8 0.9 1 -1.2 1 -1.5 0 -3 -0.4 -3.3 -1z"/>
  <path d="M137 285.4 c-0.6 -1.4 -1 -3 -1 -3.6 0 -0.5 -0.7 -0.8 -1.5 -0.4 -0.9 0.3 -2.4 -0.3 -3.5 -1.4 -1.1 -1.1 -1.6 -2 -1.1 -2 4.5 0 13.3 7.6 10.8 9.2 -2 1.3 -2.7 0.9 -3.7 -1.8z"/>
  <path d="M118.1 281.7 l-2.5 -3.2 3.5 3 c1.8 1.7 3.6 3.1 3.8 3.3 0.2 0.1 -0.2 0.2 -1 0.1 -0.8 0 -2.5 -1.4 -3.8 -3.2z"/>
  <path d="M121.8 263.3 c1 -0.4 1 -0.8 0.1 -1.9 -0.9 -1.2 -0.5 -1.4 2.5 -1.4 4.1 0 5.1 2.4 1.4 3.4 -2.9 0.7 -5.9 0.7 -4 -0.1z"/>
  <path d="M154.6 253.9 c-4.8 -2.3 -4.8 -2.3 -4 -4.3 0.3 -0.9 1.7 -1.6 3 -1.6 1.9 0 2.4 -0.5 2.4 -2.5 0 -1.8 0.5 -2.5 2 -2.5 1.8 0 2 0.7 2 5.9 0 3.3 -0.3 6.2 -0.8 6.4 -0.4 0.3 -2.5 -0.3 -4.6 -1.4z"/>
  <path d="M183.7 251.8 c-1.6 -1.5 -2.6 -3.2 -2.2 -3.8 0.3 -0.6 -1.2 -3.1 -3.5 -5.7 -3.1 -3.5 -4 -5.3 -3.6 -6.9 0.4 -1.3 0.2 -2.5 -0.4 -2.9 -0.5 -0.3 -1.4 -2.1 -1.9 -4.1 -0.8 -2.7 -0.6 -4.3 0.9 -7.7 3.2 -7.3 4.2 -16.2 2.9 -25.7 -1.5 -11.2 -1.6 -16.4 -0.4 -17 1.5 -0.7 9.3 31.1 10 40.5 0.3 4.4 0.8 10 1.1 12.5 0.6 5.6 0.9 22.9 0.3 23.3 -0.2 0.1 -1.7 -1 -3.2 -2.5z"/>
  <path d="M142.8 247.3 c-3.2 -3.5 -2.3 -7.7 2.2 -11.3 2.3 -1.8 5.7 -6.1 7.8 -9.7 3.3 -5.8 3.8 -6.2 5 -4.6 0.7 1 1.1 2.5 0.8 3.3 -5.6 17.3 -5.7 17.4 -9.9 17.8 -3.2 0.3 -3.6 0.7 -3.9 3.4 -0.3 3 -0.3 3 -2 1.1z"/>
  <path d="M134.5 237.4 c-0.7 -4.1 0 -5.7 1 -2.2 0.4 1.3 1.4 3.1 2.3 4.1 1.4 1.5 1.3 1.7 -0.5 1.7 -1.6 0 -2.2 -0.9 -2.8 -3.6z"/>
  <path d="M121 232.9 c0 -3.3 -0.6 -5.6 -1.6 -6.7 -1.4 -1.4 -1.6 -3.1 -1 -11.6 0.4 -5.9 1.2 -10.9 2.1 -12.2 0.7 -1.2 1.7 -6.1 2.1 -10.9 0.5 -6.6 1.1 -8.8 2.3 -9.3 3.1 -1.2 3.9 -2.6 3 -5.7 -0.5 -1.6 -0.9 -4.7 -0.9 -6.7 0 -3.1 0.4 -3.8 1.9 -3.8 2.3 0 3.6 -1.6 2.1 -2.5 -0.5 -0.3 -1 -2 -1 -3.6 l0 -3 3 2.1 c2.1 1.5 3.4 3.7 4.6 7.6 0.9 3.1 1.3 5.8 1 6.1 -0.3 0.4 -0.6 0.1 -0.6 -0.5 0 -0.7 -0.4 -1.2 -0.8 -1.2 -0.5 0 -0.7 2.8 -0.5 6.3 l0.3 6.2 -1.5 -4.7 c-1.8 -5.4 -4 -7.7 -3.2 -3.2 0.3 1.6 0.9 5.5 1.2 8.7 l0.7 5.9 -3 -2.2 c-1.7 -1.2 -3.4 -2 -3.9 -1.7 -1.2 0.8 -1.5 13.8 -0.4 20.5 0.4 2.9 0.4 5.5 0 5.8 -1.5 0.9 -1 2.6 0.6 2 2.2 -0.8 1.9 4.9 -0.5 10.3 -1.9 4.2 -1.9 4.5 -0.3 6.3 1.5 1.7 1.5 2.1 0.3 2.9 -1.2 0.8 -1.2 1.2 -0.2 1.6 2.1 0.8 0.3 2.3 -2.9 2.3 -2.8 0 -2.9 -0.1 -2.9 -5.1z"/>
  <path d="M160.1 210.4 c-2.3 -8.2 -5.5 -18 -7.1 -21.9 -2.2 -5.5 -2.5 -7.1 -1.4 -7.3 0.8 -0.2 1.4 -1.2 1.4 -2.3 0 -1.6 -0.5 -1.9 -1.9 -1.4 -1.7 0.5 -2.5 -0.6 -5.5 -7 -1.9 -4.1 -4.4 -8.9 -5.6 -10.5 l-2.1 -3 3 0 c2.1 0 3.1 0.5 3.1 1.5 0 0.8 0.4 1.5 0.8 1.5 1 0 4.2 6.5 4.2 8.5 0 0.8 0.9 1.5 2 1.5 1.1 0 2 0.7 2 1.5 0 0.9 0.9 1.5 2.1 1.5 1.6 0 1.9 -0.4 1.4 -1.7 -0.4 -1 -1.1 -3.6 -1.5 -5.8 -0.8 -4.5 -3.3 -9.7 -5.5 -11.5 -0.8 -0.7 -1.5 -2.3 -1.5 -3.6 0 -1.7 -0.6 -2.4 -2 -2.4 -2.2 0 -2.9 -3.5 -0.8 -4.2 1.3 -0.5 13.5 12 13 13.4 -0.1 0.4 1.6 2.5 3.8 4.7 2.2 2.1 4 4.6 4 5.5 0 0.9 0.6 1.9 1.4 2.2 2.1 0.8 3.4 5 4.6 14.3 0.8 6.9 0.7 8.8 -0.5 11 -1.9 3.4 -5.5 17.4 -5.6 22 -0.3 9.7 -1.4 8.4 -5.8 -6.5z m3.4 -24.2 c-0.9 -6 -2.8 -10.3 -2 -4.7 0.2 2.2 0.5 5.5 0.5 7.3 0 2.2 0.4 3.1 1.1 2.6 0.7 -0.4 0.8 -2.3 0.4 -5.2z"/>
 </g>
 <g fill="#9b9888">
  <path d="M155.3 251.2 c-0.6 -0.4 -1.4 -2.4 -1.8 -4.4 -0.4 -2.1 -1.4 -4.3 -2.1 -4.9 -1.6 -1.3 -1.3 -4.1 1.1 -11.4 2.9 -8.9 4.8 -11.4 5.9 -7.7 1.1 3.9 1.7 17.7 1.1 23.3 -0.7 5.7 -1.6 6.8 -4.2 5.1z"/>
  <path d="M150.5 182.1 c-0.3 -0.6 -1.2 -2.8 -1.9 -4.9 -1.4 -3.9 -1.4 -3.9 0.9 -3.9 2.5 0 3.5 1.9 3.5 7 0 2.6 -1.3 3.6 -2.5 1.8z"/>
  <path d="M125.7 160.3 c-1.1 -0.3 -1.7 -1.2 -1.5 -2.1 0.5 -2.3 5.6 -1.8 8.2 0.8 l2 2 -3.4 -0.1 c-1.9 -0.1 -4.3 -0.3 -5.3 -0.6z"/>
  <path d="M134.2 155.4 c-4.2 -2.2 -4.2 -2.3 -2.2 -3.4 1.2 -0.6 3.3 -0.9 4.6 -0.6 1.9 0.5 2.4 1.3 2.4 3.6 0 1.7 -0.1 2.9 -0.2 2.9 -0.2 -0.1 -2.2 -1.2 -4.6 -2.5z"/>
 </g>
 <g fill="#a69a7d">
  <path d="M152.8 252.9 c-2.1 -1.1 -3.8 -2.5 -3.8 -3.3 0 -0.7 -1.6 -2.1 -3.5 -3.2 -1.9 -1 -3.5 -2.2 -3.5 -2.5 0 -0.4 -0.2 -1.3 -0.5 -2.1 -0.3 -0.7 -0.1 -2 0.4 -2.8 0.8 -1.2 1.3 -1.2 3.5 -0.1 3.1 1.7 5.6 0.1 5.6 -3.5 0 -1.2 0.5 -2.6 1 -2.9 0.6 -0.4 1 0.6 1 2.3 0 1.6 0.6 3.5 1.4 4.1 0.8 0.7 1.7 2.8 2.1 4.9 0.4 2 1.1 4.2 1.7 4.9 1.2 1.4 0.7 5.5 -0.7 5.9 -0.5 0.2 -2.7 -0.6 -4.7 -1.7z"/>
  <path d="M134.7 237.8 c-0.6 -4.4 -0.4 -4.4 1.6 -0.3 1.3 2.8 1.4 3.5 0.3 3.5 -0.8 0 -1.6 -1.4 -1.9 -3.2z"/>
  <path d="M118.6 231.3 c-2.2 -22.5 -1.9 -25.3 2.3 -25.3 1.2 0 1.7 1.1 1.9 3.9 0.1 2.2 -0.2 4.2 -0.8 4.6 -1.2 0.7 -1.3 6.5 -0.2 8.1 0.4 0.6 1.5 1.3 2.5 1.7 1.5 0.6 1.6 1 0.6 2.9 -0.9 1.8 -0.9 2.4 0.6 3.4 1.5 1.1 1.5 1.4 0.1 3.6 -0.9 1.4 -1.3 2.8 -0.9 3.1 0.3 0.4 -0.7 0.7 -2.4 0.7 -3.1 0 -3.1 0 -3.7 -6.7z"/>
  <path d="M159.2 193.8 c-1.4 -14.8 -3.3 -22.4 -2.5 -10.2 0.7 10.5 -0.7 11.4 -4.3 2.6 -1.5 -3.7 -4.2 -10.3 -6.1 -14.6 -1.8 -4.4 -3.3 -8.1 -3.3 -8.3 0 -0.2 1.1 -0.3 2.4 -0.3 2.5 0 3.6 1.6 3.6 5.6 0 2.6 1.3 3.1 3.4 1.2 1.3 -1.3 0.9 -5.9 -0.6 -6.9 -1.3 -0.9 -2.3 -12.9 -1.1 -12.9 1.2 0 4.3 3.3 4.3 4.5 0 0.4 1.1 2.3 2.5 4.1 2.7 3.6 3.1 5 1.4 5.6 -1.1 0.4 0.8 5.8 2 5.8 1.6 0 4.4 6.8 5.5 13.3 1.1 6.3 1 7.9 -0.5 13.1 -1 3.3 -2.6 6.8 -3.6 7.8 -1.8 1.8 -1.9 1.4 -3.1 -10.4z"/>
  <path d="M122 198 c0 -6.3 0.2 -7 1.9 -7 1.7 0 2 0.7 1.9 5.2 0 5.4 -1.1 8.8 -2.8 8.8 -0.6 0 -1 -3.1 -1 -7z"/>
  <path d="M123 185.8 c0 -2.3 0.9 -3.9 3.2 -6 3.8 -3.4 5.4 -3.5 6.1 -0.6 0.6 2.3 -1.2 4.8 -4.5 6.1 -1 0.3 -1.8 1.3 -1.8 2.2 0 0.8 -0.7 1.5 -1.5 1.5 -1 0 -1.5 -1 -1.5 -3.2z"/>
 </g>
 <g fill="#a89c87">
  <path d="M148.9 250.8 c-6.3 -3.2 -6.4 -3.4 -6.7 -7.7 -0.4 -4.8 -0.4 -4.8 5.5 -0.6 2.8 2 4.2 3.8 4.3 5.3 0 1.2 0.3 2.2 0.8 2.2 0.4 0 1.3 0.9 2 2 0.7 1.1 1.1 2 0.9 2 -0.2 0 -3.3 -1.5 -6.8 -3.2z"/>
  <path d="M154.8 244.6 c-1 -0.7 -1.8 -2.6 -1.8 -4.2 0 -2.4 0.2 -2.6 1.4 -1.4 1.2 1.3 3.1 7.1 2.4 7 -0.2 0 -1.1 -0.7 -2 -1.4z"/>
  <path d="M108.1 240.3 l-3.4 -0.4 0.7 -7.7 c0.8 -8.7 1 -9.2 3.7 -9.2 2.3 0 2.2 0.9 2 -24.8 -0.1 -16.3 0.1 -19.4 1.4 -19.8 0.9 -0.4 1.5 -1.9 1.5 -3.5 0 -2.4 0.4 -2.9 2.3 -2.9 1.7 0 2.7 -0.9 3.7 -3.5 0.8 -1.9 2 -3.5 2.7 -3.5 0.7 0 1.3 -1.1 1.3 -2.5 0 -1.4 -0.4 -2.5 -1 -2.5 -1.7 0 -1.1 -1.9 1 -3 3.8 -2 12 3.3 13.3 8.8 0.4 1.9 0.3 2.1 -0.9 1.1 -1.1 -0.9 -1.5 -0.6 -2 2 -0.6 3.1 -0.7 3.1 -2.7 1.4 -2 -1.8 -2 -1.7 -1.3 1.1 2 8.3 2 8.6 -1.2 11.4 -2.7 2.5 -3 3.4 -3.7 11.5 -0.6 6.5 -1.4 10.1 -3.2 13.5 -2.1 3.9 -2.4 5.6 -2 9.8 0.3 2.9 1.2 6.5 2.1 8.1 1.1 2.3 1.2 3.3 0.3 4.2 -0.8 0.8 -0.6 1.1 1.1 1.1 2.8 0 2.8 2.3 0 5 -1.7 1.6 -3.5 2 -8.7 2 -6.2 0.1 -6.5 0.2 -4.1 1.5 1.4 0.8 2.1 1.4 1.5 1.3 -0.5 -0.1 -2.5 -0.3 -4.4 -0.5z"/>
  <path d="M154.9 185.3 c-0.1 -0.5 -0.1 -1.2 0 -1.6 0.1 -0.5 -0.7 -0.6 -1.7 -0.3 -1.4 0.5 -2.1 -0.3 -3.4 -3.8 -1.2 -3.3 -1.3 -4.7 -0.5 -5.5 0.9 -0.9 0.8 -1.1 -0.5 -0.6 -1.3 0.5 -1.9 -0.1 -2.6 -2.8 -1.1 -3.8 -5.7 -11.1 -9 -14 -1.1 -1 -3.2 -2.2 -4.8 -2.6 -2.7 -0.7 -2.5 -0.9 5.6 -5.8 l8.4 -5.1 3.5 4.5 c2 2.5 3.7 5.7 3.8 7.2 0.2 1.4 0.4 3.2 0.5 3.9 0.1 0.6 0.6 1.2 1.2 1.2 0.6 0 1.1 1.2 1.2 2.8 0 1.5 0.4 4.5 0.9 6.6 0.7 3.3 0.5 3.8 -0.7 3.3 -1.3 -0.5 -1.5 0.5 -1.2 6.4 0.2 3.8 0.1 6.9 -0.1 6.9 -0.3 0 -0.6 -0.3 -0.6 -0.7z"/>
 </g>
 <g fill="#d9a27a">
  <path d="M139.6 370.4 c-1.4 -3.7 -0.3 -12 1.5 -10.8 1.2 0.7 1.2 11.1 0 11.8 -0.5 0.3 -1.2 -0.1 -1.5 -1z"/>
  <path d="M111.7 316 c-1.4 -1.1 -3 -2 -3.7 -2 -0.6 0 -0.9 -0.4 -0.6 -0.9 0.3 -0.5 0 -2.1 -0.8 -3.5 l-1.3 -2.6 -2.4 3 c-2.9 3.6 -4.1 3.8 -3.9 0.8 0.1 -1.3 0.1 -2.7 0 -3.3 -0.5 -2.6 0.3 -8.3 1.7 -10.9 0.8 -1.6 1.1 -3.1 0.6 -3.5 -0.5 -0.3 -0.6 -1.8 -0.3 -3.3 l0.5 -2.7 5 4.5 c2.8 2.5 4 4 2.9 3.5 -1.2 -0.6 -2.5 -0.7 -2.9 -0.3 -0.5 0.4 -0.5 0.1 -0.1 -0.5 0.4 -0.7 0.3 -1.3 -0.2 -1.3 -0.6 0 -1.2 0.7 -1.6 1.5 -0.3 0.9 0 1.5 0.9 1.5 0.8 0 1.5 0.5 1.5 1 0 0.6 0.9 1 2 1 1.1 0 2 0.5 2 1.1 0 0.5 0.4 0.8 0.8 0.5 1.4 -0.8 4.9 2.1 6.5 5.3 1.3 2.7 1.3 3.1 -0.5 5 -2.2 2.5 -3.7 2.6 -6.4 0.6 -1.8 -1.5 -1.8 -1.5 0 -2.9 1 -0.8 1.5 -1.9 1.2 -2.5 -0.4 -0.5 -0.1 -1.3 0.5 -1.7 0.8 -0.4 0.7 -0.9 -0.2 -1.5 -1.7 -1.1 -2.9 -1.1 -2.8 -0.1 0.3 1.8 -0.2 3.2 -1.1 3.2 -0.5 0 -1 -1.3 -1 -3 0 -1.6 -0.4 -3 -0.9 -3 -0.4 0 -0.8 1.3 -0.7 3 0.1 1.6 0.4 3 0.9 3 0.4 0 0.7 0.9 0.7 2 0 1.2 0.7 3.4 1.5 5 1.2 2.3 2.3 3 4.4 3 1.6 0 3.6 0.3 4.5 0.6 1.7 0.6 4.7 -2.4 5.8 -5.9 0.7 -1.9 0.7 -1.8 0.4 0.5 -0.2 1.5 0.2 2.9 0.8 3.2 0.6 0.2 0.4 0.5 -0.4 0.5 -0.8 0.1 -2.6 1 -4 2.1 -3.2 2.5 -6.1 2.5 -9.3 0z m5.3 -9.1 c0 -1 -0.4 -1.9 -1 -1.9 -0.5 0 -1 0.4 -1 0.9 0 0.5 -0.3 1.7 -0.6 2.5 -0.5 1.2 -0.2 1.5 1 1 0.9 -0.3 1.6 -1.5 1.6 -2.5z"/>
  <path d="M129.2 300.3 c-1.8 -0.9 -3.7 -2.4 -4.3 -3.4 -0.5 -1.1 -1.6 -1.9 -2.3 -1.9 -0.8 0 -1.6 -1 -1.9 -2.1 -0.4 -1.4 -1.1 -2 -2.1 -1.6 -0.8 0.3 -1.8 0.2 -2.1 -0.3 -0.4 -0.6 -0.1 -1 0.4 -1 0.6 0 1.1 -0.7 1.1 -1.5 0 -0.8 -0.6 -1.5 -1.4 -1.5 -0.7 0 -1.6 -1 -1.9 -2.1 -0.4 -1.4 -1.1 -2 -2.1 -1.6 -1.1 0.4 -1.3 0.1 -0.9 -1 0.4 -0.9 0 -2.1 -0.9 -2.7 -0.8 -0.6 -1.8 -2.2 -2.3 -3.6 -0.6 -2 0.2 -1.6 3.9 2.3 2.6 2.7 4.4 5.3 4 5.8 -0.3 0.5 0 0.8 0.7 0.7 0.7 -0.2 1.4 0.2 1.4 0.7 0.3 2.3 1.8 4.5 3 4.5 0.8 0 1.7 0.9 2 2 0.3 1.1 1.4 2 2.3 2 1 0 2.3 1.3 3 2.9 0.7 1.5 2.2 3.3 3.5 3.9 1.2 0.6 1.8 1.1 1.2 1.1 -0.5 0 -2.5 -0.7 -4.3 -1.6z"/>
  <path d="M149 300.2 c0.8 -0.5 2.6 -1.3 4 -1.6 1.7 -0.5 2 -0.4 1 0.2 -0.8 0.5 -2.6 1.3 -4 1.6 -1.7 0.5 -2 0.4 -1 -0.2z"/>
  <path d="M165 290.3 c0 -0.5 0.8 -1.7 1.7 -2.8 1.4 -1.8 1.5 -1.8 0.9 -0.2 -0.3 1 -0.6 2.3 -0.6 2.8 0 0.5 -0.4 0.9 -1 0.9 -0.5 0 -1 -0.3 -1 -0.7z"/>
  <path d="M138 285 c0 -1.1 0.4 -2 0.9 -2 0.5 0 1.1 0.9 1.4 2 0.3 1.3 0 2 -0.9 2 -0.8 0 -1.4 -0.9 -1.4 -2z"/>
  <path d="M156 285.5 c-1 -1.2 -1 -1.5 0.4 -1.5 0.9 0 1.6 0.7 1.6 1.5 0 0.8 -0.2 1.5 -0.4 1.5 -0.2 0 -0.9 -0.7 -1.6 -1.5z"/>
  <path d="M166 279.2 c-0.8 -0.2 -3.8 -2.4 -6.6 -4.8 -4.5 -3.7 -6.7 -4.7 -17 -7.5 -6.6 -1.8 -13.5 -3.4 -15.4 -3.7 -2.1 -0.2 -4.5 -1.5 -6.1 -3.2 -1.4 -1.5 -4.1 -3.6 -6 -4.5 -1.9 -1 -6.1 -4.2 -9.5 -7.1 -6 -5.3 -6 -5.4 -5.5 -9.6 0.6 -4.1 0.8 -4.3 4.3 -4.6 2.9 -0.2 3.8 0 3.8 1.2 0 1.1 1 1.6 3.3 1.7 l3.2 0.1 -2.9 0.7 -2.9 0.6 3.4 1.6 c1.9 0.9 5.7 3.6 8.4 6.1 2.8 2.4 6.6 5.4 8.6 6.6 5 3 18 8.2 20.6 8.2 2.4 0 5.3 2.4 5.3 4.4 0 0.7 2.2 2.7 4.9 4.4 2.7 1.7 5.7 4.5 6.6 6.2 1.8 3.5 1.7 4 -0.5 3.2z"/>
  <path d="M93.6 238.9 c-3.5 -2.8 -3.4 -4.9 0.4 -4.9 2.8 0 3 0.3 3 3.5 0 1.9 -0.2 3.5 -0.4 3.5 -0.2 0 -1.5 -0.9 -3 -2.1z"/>
  <path d="M149.7 137.3 c0.5 -1.6 0.8 -6.2 0.8 -10.5 0 -4.2 0.4 -7.4 0.8 -7.1 1.2 0.7 4.7 -3.7 4.7 -5.9 0 -1 0.4 -1.8 0.9 -1.8 1 0 4.1 6.2 4.1 8.3 0 0.8 0.8 2.5 1.9 3.8 1.7 2.1 1.7 2.7 0.5 6.1 -0.7 2.1 -1.1 4.4 -0.9 5.1 0.3 0.6 0.1 1.8 -0.4 2.6 -0.8 1.2 -1.4 1.3 -3.5 0.3 -1.4 -0.6 -2.6 -1.6 -2.6 -2.2 0 -0.5 -0.7 -1 -1.6 -1 -0.8 0 -1.2 0.5 -0.9 1 0.8 1.4 -1.3 4 -3.1 4 -1.1 0 -1.2 -0.7 -0.7 -2.7z"/>
  <path d="M158 108.8 c0 -0.7 1.2 -2.4 2.5 -3.7 1.4 -1.3 2.5 -3.1 2.5 -4 0 -4.3 5.6 -5.6 6.6 -1.6 0.7 2.8 -1.7 7.3 -4.4 8.1 -0.9 0.3 -2.5 1 -3.4 1.5 -2.4 1.3 -3.8 1.1 -3.8 -0.3z"/>
 </g>
 <g fill="#edb792">
  <path d="M102.5 294.3 c0.4 -1.4 0.2 -2.3 -0.4 -2.3 -0.6 0 -1.1 -0.9 -1.1 -2.1 l0 -2.1 3.2 2.1 c1.8 1.1 3.4 2.6 3.6 3.3 0.2 0.8 0 0.8 -0.7 -0.2 -1 -1.3 -1.4 -1.1 -3.2 1 -2 2.4 -2 2.4 -1.4 0.3z"/>
  <path d="M165.8 290.4 c-0.4 -0.5 0 -1.8 0.8 -2.9 1.5 -2 1.7 -1.2 0.5 1.9 -0.4 1.1 -1 1.5 -1.3 1z"/>
  <path d="M138 285.5 c0 -0.8 0.4 -1.5 0.9 -1.5 0.5 0 1.1 0.7 1.5 1.5 0.3 0.9 0 1.5 -0.9 1.5 -0.8 0 -1.5 -0.7 -1.5 -1.5z"/>
  <path d="M120 258.9 c-1.4 -1.7 -5.1 -4.6 -8.2 -6.5 -3.2 -2 -5.8 -3.9 -5.8 -4.3 0 -0.4 -2.7 -2.5 -6 -4.7 -3.3 -2.1 -6 -4.5 -6 -5.1 0 -0.7 -0.7 -1.3 -1.5 -1.3 -0.8 0 -1.5 -0.7 -1.5 -1.5 0 -1.1 1.2 -1.5 4.8 -1.5 2.6 0 7.2 -0.2 10.2 -0.5 3 -0.2 4.7 -0.2 3.8 0.1 -1 0.3 -1.8 1.2 -1.8 2 0 0.8 -0.9 1.4 -1.9 1.4 -4.6 0 -2.8 3.1 3.7 6.4 1.8 1 5.7 4 8.5 6.7 4.7 4.6 5 5.2 3.5 6.3 -1.6 1.2 -1.6 1.4 -0.1 2.9 0.9 0.9 1.5 1.9 1.2 2.1 -0.3 0.3 -1.6 -0.8 -2.9 -2.5z"/>
  <path d="M143.7 247.3 c-0.2 -0.5 -0.7 -2.6 -1.1 -4.8 l-0.7 -4 2.5 4 c2.3 3.8 2.5 5.5 0.6 5.5 -0.5 0 -1.1 -0.3 -1.3 -0.7z"/>
 </g>
 <g fill="#efe6d9">
  <path d="M144.2 246.8 c-1.5 -1.5 -1.6 -5.2 -0.2 -4.3 1.6 1 3.1 4.3 2.2 4.9 -0.5 0.3 -1.4 0 -2 -0.6z"/>
  <path d="M91 235 c0 -1.4 0.9 -2.1 3.5 -2.6 1.9 -0.3 4.4 -0.4 5.5 -0.1 1.1 0.3 2 0.1 2 -0.3 0 -0.5 -1.5 -1 -3.2 -1.2 -3.2 -0.3 -3.3 -0.5 -3.6 -5.2 -0.2 -3.5 0.7 -8.1 3.3 -16.2 1.9 -6.2 4.4 -14.6 5.4 -18.6 3.9 -15 6.9 -21.1 14.3 -29 3.5 -3.7 5.1 -4.8 7.5 -4.8 3 0 3.1 0.1 2 2.9 -0.8 2.2 -0.7 4.2 0.6 8.7 l1.6 5.9 -2.7 -3.2 -2.7 -3.2 -1.2 2.6 c-1 2 -0.9 3.7 0.2 8.1 1.6 6.1 2 14.2 0.7 14.2 -0.5 0 -1.9 -2.5 -3.1 -5.5 -1.3 -3 -2.7 -5.3 -3.1 -5 -0.5 0.3 -1.1 0.1 -1.5 -0.5 -2.3 -3.7 -3.3 5.9 -1.6 14.8 0.5 2.5 0.5 6.1 -0.1 8.4 -1 4.7 -0.1 10.9 1.3 8.7 1 -1.7 1.2 -1.4 2.8 4.6 2.5 9.1 2.5 10.5 0.4 10.5 -1.1 0 -2.8 -0.7 -3.9 -1.5 -2.1 -1.6 -5 -1.9 -5.8 -0.6 -0.3 0.5 0.6 2 2.1 3.5 l2.6 2.6 -3.1 0.6 c-1.7 0.3 -3.3 1.2 -3.6 2 -0.4 1 -2.6 1.4 -8.6 1.4 -7.3 0 -8 -0.2 -8 -2z m26.8 -11.2 c-1.8 -2.7 -3.8 -3.5 -3.8 -1.5 0 0.8 1 1.9 2.3 2.5 3.1 1.5 3.1 1.5 1.5 -1z m1.7 -45.5 c-0.8 -3.2 -1.3 -3.9 -2.1 -3 -1 0.9 0.5 5.7 1.7 5.7 0.7 0 0.9 -1 0.4 -2.7z"/>
  <path d="M131.6 153.2 c-0.3 -0.5 0.8 -1.6 2.5 -2.6 3.3 -1.9 3.7 -1.5 1.2 1.4 -1.9 2.1 -2.9 2.5 -3.7 1.2z"/>
  <path d="M142.8 145.4 c1.2 -0.8 2.7 -1.2 3.2 -0.9 1.7 1 0.1 2.5 -2.8 2.5 l-2.6 0 2.2 -1.6z"/>
 </g>
 <g fill="#f8f1e6">
  <path d="M91 235.4 c0 -0.8 4.9 -18.3 6.3 -22.4 0.6 -1.9 2 -4.6 3.1 -6 1.4 -1.9 1.7 -2 1.1 -0.5 -0.8 1.9 -1.8 7.4 -3.1 16.1 -1.2 7.8 1.4 5.8 4.2 -3.3 1.5 -4.9 3 -9.7 3.5 -10.8 0.4 -1.1 1.1 -3.6 1.4 -5.5 0.3 -1.9 1.3 -6.4 2.2 -9.9 1.5 -5.8 1.8 -6.2 2.4 -3.7 0.8 3.1 -2.2 23.1 -5.4 35.6 -0.7 2.5 -1.2 5.9 -1.2 7.5 l0 3 -7.2 0.2 c-4 0.1 -7.3 0 -7.3 -0.3z"/>
 </g>
<g opacity="0.5" transform="rotate(-45, 192.0, 256.0)">
  <text x="50%" y="50%" font-size="20" text-anchor="middle" fill="lightgray" dominant-baseline="middle">
    generated by vectorizer.io
  </text>
</g>
</svg>